<?xml version="1.0" encoding="utf-8"?>
<!-- Generator: Adobe Illustrator 16.0.0, SVG Export Plug-In . SVG Version: 6.00 Build 0)  -->
<!DOCTYPE svg PUBLIC "-//W3C//DTD SVG 1.1//EN" "http://www.w3.org/Graphics/SVG/1.1/DTD/svg11.dtd">
<svg version="1.1" id="Layer_1" xmlns="http://www.w3.org/2000/svg" xmlns:xlink="http://www.w3.org/1999/xlink" x="0px" y="0px"
	 width="1133.76px" height="831.12px" viewBox="0 0 1133.76 831.12" enable-background="new 0 0 1133.76 831.12"
	 xml:space="preserve">
<path fill="#FFFEFE" d="M381.542,763.96c0,3.76-0.003,7.52,0.003,11.278c0,0.641-0.016,1.287,0.07,1.917
	c0.134,0.983,1.018,1.688,2.016,1.66c0.555-0.016,1.105-0.043,1.629-0.31c2.294-1.165,4.842-1.509,7.297-2.088
	c3.702-0.873,7.404-1.74,11.068-2.759c4.046-1.123,7.994-2.554,11.968-3.911c6.095-2.082,11.985-4.637,17.793-7.373
	c4.023-1.896,7.93-4.048,11.827-6.197c2.783-1.535,5.506-3.192,8.181-4.911c6.237-4.009,12.26-8.318,17.989-13.039
	c4.07-3.354,8.123-6.718,11.853-10.453c0.565-0.565,1.106-1.168,1.734-1.656c1.461-1.131,2.729-2.461,3.993-3.793
	c2.09-2.201,4.189-4.396,6.217-6.654c2.4-2.674,4.814-5.341,7.067-8.139c3.499-4.343,6.926-8.743,10.211-13.26
	c5.205-7.158,9.979-14.588,14.489-22.188c3.531-5.95,6.878-12.012,9.911-18.235c2.403-4.931,4.852-9.843,7.095-14.845
	c2.566-5.721,5.027-11.489,7.266-17.348c1.388-3.628,2.764-7.263,4.077-10.919c3.002-8.357,5.627-16.836,8.209-25.332
	c2.377-7.816,4.19-15.773,6.205-23.682c0.997-3.915,1.904-7.857,2.723-11.814c0.511-2.482,0.988-4.978,1.456-7.469
	c0.466-2.494,1.013-4.972,1.47-7.467c0.356-1.952,0.71-3.905,1.006-5.866c0.285-1.883,0.532-3.769,0.907-5.641
	c0.295-1.478,0.4-2.993,0.576-4.494c0.2-1.737,0.284-3.496,0.602-5.212c0.405-2.192,0.745-4.384,0.858-6.609
	c0.019-0.399-0.003-0.811,0.092-1.193c0.88-3.574,0.798-7.259,1.243-10.884c0.339-2.764,0.438-5.558,0.644-8.339
	c0.006-0.08-0.006-0.163,0.013-0.239c0.599-2.442,0.264-4.93,0.347-7.396c0.043-1.271-0.485-2.329-1.453-3.143
	c-0.485-0.407-1.005-0.782-1.545-1.112c-1.358-0.829-2.727-1.645-4.109-2.431c-6.237-3.55-12.843-6.226-19.718-8.253
	c-1.296-0.382-2.109,0.109-2.456,1.452c-0.199,0.769-0.376,1.533-0.363,2.348c0.025,1.76-0.023,3.52-0.053,5.278
	c-0.024,1.361,0.051,2.736-0.125,4.077c-0.436,3.318-0.56,6.658-0.811,9.988c-0.233,3.1-0.388,6.205-0.578,9.308
	c-0.01,0.16,0.022,0.336-0.036,0.477c-0.469,1.148-0.265,2.369-0.397,3.554c-0.142,1.262-0.299,2.523-0.419,3.789
	c-0.203,2.14-0.383,4.282-0.574,6.424c-0.022,0.237-0.035,0.478-0.082,0.711c-0.421,2.106-0.757,4.224-0.857,6.372
	c-0.018,0.399,0.016,0.812-0.069,1.196c-0.86,3.882-1.16,7.851-1.842,11.759c-0.233,1.332-0.389,2.674-0.573,4.011
	c-0.326,2.354-0.972,4.666-1.248,7.022c-0.353,3.007-1.039,5.948-1.632,8.897c-1.171,5.826-2.492,11.625-3.862,17.408
	c-1.717,7.248-3.763,14.416-5.956,21.534c-2.638,8.563-5.55,17.035-8.845,25.372c-2.277,5.762-4.697,11.465-7.345,17.058
	c-2.55,5.39-5.216,10.728-8.102,15.953c-3.967,7.182-8.206,14.194-12.86,20.95c-3.165,4.596-6.493,9.07-9.975,13.436
	c-3.136,3.934-6.352,7.804-9.77,11.486c-5.931,6.391-12.203,12.444-18.935,17.996c-4.612,3.803-9.397,7.389-14.36,10.727
	c-4.689,3.152-9.517,6.071-14.475,8.789c-6.976,3.827-14.157,7.188-21.601,9.985c-6.53,2.454-13.132,4.686-19.922,6.324
	c-0.924,0.223-1.857,0.421-2.766,0.696c-1.555,0.472-2.367,1.534-2.376,3.181c-0.003,0.64-0.012,1.279-0.012,1.92
	C381.542,757.08,381.542,760.52,381.542,763.96"/>
<path fill="#FFFEFE" d="M453.583,83.204c0-3.6,0.003-7.199-0.002-10.799c0-0.64,0.021-1.285-0.053-1.917
	c-0.138-1.186-0.705-1.71-1.872-1.718c-0.797-0.005-1.644-0.063-2.38,0.176c-1.366,0.443-2.754,0.721-4.15,1.025
	c-3.096,0.676-6.166,1.469-9.246,2.216c-5.321,1.29-10.46,3.174-15.641,4.905c-3.532,1.18-6.962,2.652-10.377,4.157
	c-2.905,1.282-5.813,2.552-8.649,3.982c-1.206,0.608-2.388,1.262-3.587,1.884c-5.231,2.71-10.29,5.712-15.231,8.919
	c-4.951,3.213-9.699,6.698-14.316,10.373c-4.375,3.482-8.695,7.029-12.704,10.925c-3.843,3.735-7.571,7.587-11.344,11.393
	c-0.676,0.682-1.371,1.352-1.978,2.092c-2.833,3.455-5.818,6.778-8.609,10.272c-3.436,4.3-6.775,8.669-9.924,13.177
	c-5.93,8.488-11.415,17.257-16.38,26.347c-3.2,5.86-6.329,11.753-9.193,17.793c-3.336,7.037-6.489,14.148-9.401,21.366
	c-2.967,7.353-5.789,14.763-8.262,22.302c-0.593,1.807-1.304,3.577-1.863,5.395c-1.488,4.848-2.945,9.706-4.37,14.573
	c-0.867,2.965-1.686,5.946-2.466,8.936c-0.98,3.756-1.907,7.527-2.838,11.296c-0.666,2.692-1.323,5.386-1.944,8.088
	c-0.781,3.398-1.609,6.789-2.255,10.213c-0.515,2.728-1.06,5.456-1.481,8.195c-0.505,3.297-1.235,6.549-1.724,9.851
	c-0.521,3.527-1.071,7.056-1.676,10.574c-0.215,1.252-0.407,2.515-0.496,3.78c-0.139,1.987-0.669,3.934-0.588,5.941
	c-0.741,3.591-0.921,7.252-1.239,10.887c-0.284,3.249-0.694,6.486-0.945,9.733c-0.227,2.945-0.122,5.916-0.174,8.874
	c-0.016,0.858,0.322,1.538,0.92,2.129c0.798,0.789,1.689,1.448,2.611,2.088c5.514,3.819,11.345,7.031,17.656,9.335
	c0.888,0.324,1.796,0.673,2.723,0.801c1.686,0.231,2.307,0.054,2.71-1.821c0.083-0.387,0.226-0.775,0.223-1.161
	c-0.024-3.116,0.373-6.208,0.498-9.314c0.052-1.276,0.019-2.569,0.224-3.822c0.359-2.2,0.493-4.42,0.722-6.63
	c0.189-1.817,0.198-3.646,0.401-5.473c0.343-3.081,0.748-6.159,1.002-9.248c0.223-2.698,0.645-5.365,0.945-8.049
	c0.327-2.923,0.635-5.846,1.068-8.756c0.223-1.493,0.372-2.998,0.623-4.485c0.382-2.266,0.853-4.518,1.234-6.785
	c0.553-3.288,0.913-6.615,1.624-9.866c0.778-3.563,1.376-7.159,2.153-10.723c0.894-4.104,1.888-8.186,2.813-12.282
	c1.03-4.558,2.129-9.103,3.497-13.579c1.457-4.773,2.703-9.614,4.257-14.355c2.518-7.683,5.136-15.329,8.138-22.849
	c2.74-6.864,5.643-13.648,8.826-20.308c2.811-5.882,5.784-11.688,9.051-17.34c2.749-4.756,5.596-9.447,8.576-14.059
	c2.553-3.951,5.304-7.757,8.087-11.547c4.255-5.793,8.762-11.382,13.637-16.653c6.136-6.632,12.532-13.008,19.506-18.783
	c4.179-3.461,8.448-6.796,12.898-9.898c5.686-3.963,11.559-7.627,17.682-10.871c3.999-2.119,8.04-4.16,12.219-5.923
	c3.361-1.418,6.691-2.905,10.151-4.08c5.1-1.731,10.175-3.54,15.405-4.857c0.923-0.233,1.862-0.419,2.764-0.717
	c1.83-0.603,2.415-1.416,2.5-3.326c0.021-0.479,0.014-0.96,0.014-1.44C453.584,90.243,453.584,86.724,453.583,83.204"/>
<path fill="#FFFEFE" d="M757.629,460.892c3.12,0,6.239-0.006,9.358,0.005c0.884,0.003,1.75-0.061,2.594-0.351
	c0.752-0.258,1.254-0.736,1.268-1.553c0.013-0.876,0.046-1.773-0.116-2.627c-0.638-3.358-1.281-6.719-2.044-10.051
	c-1.12-4.882-2.484-9.702-3.931-14.498c-1.886-6.252-4.218-12.344-6.776-18.344c-3.823-8.96-8.427-17.512-13.652-25.735
	c-8.005-12.598-17.426-24.049-27.967-34.594c-1.412-1.412-2.919-2.729-4.359-4.114c-3.11-2.994-6.355-5.835-9.655-8.621
	c-5.801-4.898-11.853-9.464-18.07-13.814c-10.728-7.504-22.007-14.088-33.605-20.145c-7.271-3.796-14.728-7.191-22.24-10.467
	c-7.51-3.272-15.14-6.249-22.855-8.983c-7.488-2.652-14.999-5.251-22.649-7.415c-3.9-1.104-7.769-2.327-11.692-3.336
	c-7.005-1.8-14.026-3.548-21.073-5.182c-4.259-0.987-8.581-1.697-12.867-2.574c-2.806-0.574-5.638-1.006-8.446-1.547
	c-3.597-0.693-7.209-1.263-10.817-1.879c-1.263-0.217-2.544-0.246-3.791-0.484c-4.782-0.912-9.643-1.188-14.455-1.848
	c-0.866-0.12-1.726-0.308-2.595-0.383c-4.449-0.384-8.899-0.741-13.349-1.108c-0.238-0.02-0.479-0.024-0.716-0.057
	c-2.938-0.407-5.894-0.337-8.847-0.342c-1.378-0.002-2.466,0.599-3.285,1.674c-0.578,0.761-1.115,1.556-1.642,2.354
	c-2.947,4.458-5.776,8.991-8.474,13.604c-1.046,1.788-2.007,3.625-3.013,5.436c-0.354,0.638-0.63,1.294-0.593,2.041
	c0.025,0.513,0.239,0.937,0.702,1.174c0.642,0.328,1.316,0.535,2.056,0.567c2.31,0.1,4.618,0.25,6.928,0.359
	c2.077,0.099,4.167,0.056,6.23,0.277c3.17,0.339,6.323,0.827,9.522,0.849c0.559,0.003,1.132-0.004,1.673,0.114
	c2.112,0.462,4.279,0.376,6.411,0.728c2.903,0.479,5.86,0.624,8.788,0.966c4.034,0.471,8.063,0.986,12.091,1.497
	c1.104,0.14,2.2,0.347,3.302,0.499c1.501,0.207,3.013,0.342,4.506,0.593c3.45,0.58,6.893,1.208,10.338,1.823
	c3.759,0.669,7.533,1.265,11.27,2.037c5.14,1.06,10.257,2.229,15.373,3.398c8.992,2.054,17.85,4.618,26.659,7.324
	c7.902,2.426,15.69,5.19,23.398,8.192c11.431,4.452,22.59,9.478,33.405,15.267c9.713,5.199,19.063,10.971,28.023,17.386
	c9.571,6.852,18.635,14.292,26.871,22.717c2.46,2.516,5.003,4.959,7.343,7.583c4.999,5.604,9.717,11.437,14.037,17.592
	c3.902,5.557,7.537,11.278,10.75,17.254c4.19,7.792,7.971,15.776,10.896,24.143c1.733,4.955,3.521,9.891,4.741,15.008
	c0.405,1.701,0.897,3.382,1.337,5.074c0.425,1.628,1.612,2.289,3.149,2.477c0.553,0.067,1.119,0.039,1.678,0.04
	C751.71,460.895,754.67,460.893,757.629,460.892"/>
<path fill="#FFFEFE" d="M125.747,386.136v-0.004c-3.28,0-6.558-0.007-9.838,0.005c-0.635,0.002-1.287,0-1.905,0.131
	c-1.207,0.256-1.835,1.312-1.505,2.532c0.352,1.304,0.791,2.585,1.187,3.877c2.244,7.315,5.044,14.419,8.283,21.343
	c3.486,7.449,7.617,14.547,12.186,21.376c5.027,7.512,10.648,14.578,16.836,21.164c3.721,3.959,7.582,7.788,11.606,11.453
	c6.566,5.98,13.551,11.423,20.813,16.521c9.479,6.655,19.469,12.445,29.776,17.704c7.088,3.618,14.341,6.874,21.698,9.902
	c6.25,2.572,12.597,4.881,18.983,7.087c4.505,1.556,9.078,2.888,13.618,4.329c8.573,2.719,17.299,4.848,26.025,6.965
	c6.023,1.462,12.111,2.678,18.201,3.842c5.78,1.104,11.56,2.229,17.399,3.012c4.101,0.551,8.187,1.204,12.282,1.803
	c1.338,0.195,2.678,0.382,4.022,0.537c1.742,0.202,3.519,0.226,5.228,0.58c3.369,0.697,6.799,0.799,10.193,1.243
	c2.369,0.31,4.743,0.592,7.14,0.72c3.259,0.174,6.508,0.551,9.761,0.85c0.713,0.065,1.421,0.207,2.135,0.245
	c1.594,0.085,3.191,0.146,4.788,0.179c1.254,0.026,2.129-0.613,2.611-1.737c0.249-0.579,0.394-1.209,0.536-1.826
	c0.8-3.493,1.272-7.043,1.828-10.578c0.594-3.774,0.996-7.576,1.862-11.306c0.178-0.765,0.142-1.591,0.124-2.387
	c-0.016-0.709-0.444-1.201-1.12-1.389c-0.685-0.191-1.365-0.373-2.102-0.392c-3.271-0.081-6.537-0.166-9.804-0.452
	c-3.415-0.299-6.828-0.748-10.27-0.699c-0.318,0.005-0.637-0.038-0.954-0.074c-2.214-0.251-4.426-0.526-6.642-0.754
	c-3.17-0.326-6.348-0.58-9.515-0.934c-4.035-0.45-8.064-0.962-12.093-1.464c-1.025-0.127-2.036-0.393-3.063-0.465
	c-3.666-0.256-7.221-1.21-10.857-1.679c-3.15-0.407-6.259-1.134-9.381-1.75c-3.51-0.691-7.043-1.301-10.515-2.153
	c-7.638-1.869-15.288-3.685-22.841-5.907c-9.31-2.741-18.509-5.794-27.535-9.347c-7.33-2.883-14.523-6.085-21.581-9.599
	c-7.57-3.77-14.937-7.886-22.071-12.419c-6.537-4.154-12.835-8.645-18.9-13.467c-5.887-4.683-11.488-9.679-16.839-14.957
	c-3.701-3.651-7.146-7.537-10.545-11.471c-3.243-3.751-6.286-7.652-9.201-11.655c-5.077-6.974-9.643-14.271-13.669-21.904
	c-0.818-1.55-1.66-3.089-2.497-4.629c-0.715-1.313-1.86-1.92-3.322-1.974c-0.639-0.024-1.279-0.027-1.919-0.028
	C131.505,386.135,128.626,386.136,125.747,386.136"/>
<path fill="#FFFEFE" d="M712.161,460.893c3.119,0,6.239-0.016,9.359,0.011c0.891,0.006,1.752-0.099,2.59-0.375
	c0.753-0.249,1.121-0.822,1.108-1.647c-0.016-1.059-0.407-2.032-0.761-2.993c-2.244-6.126-4.484-12.245-7.209-18.191
	c-3.828-8.357-8.248-16.367-13.289-24.041c-4.743-7.221-10.011-14.053-15.797-20.461c-5.792-6.415-11.927-12.505-18.529-18.091
	c-7.505-6.349-15.395-12.193-23.674-17.5c-7.785-4.991-15.798-9.58-24.069-13.721c-4.414-2.21-8.896-4.269-13.408-6.254
	c-11.287-4.964-22.815-9.292-34.604-12.91c-3.797-1.166-7.609-2.283-11.427-3.385c-5.344-1.543-10.721-2.967-16.14-4.223
	c-6.12-1.42-12.237-2.849-18.422-3.97c-2.189-0.396-4.364-0.877-6.551-1.289c-2.815-0.53-5.622-1.144-8.459-1.516
	c-3.633-0.476-7.215-1.248-10.863-1.658c-3.396-0.381-6.758-1.081-10.177-1.354c-1.507-0.12-3.012-0.318-4.506-0.559
	c-2.281-0.367-4.558-0.743-6.874-0.798c-0.64-0.015-1.291-0.005-1.914-0.122c-4.164-0.781-8.388-0.968-12.595-1.329
	c-2.144-0.184-4.295-0.343-6.425-0.646c-2.147-0.305-4.298-0.267-6.452-0.307c-1.286-0.025-2.106,0.63-2.567,1.775
	c-0.266,0.662-0.525,1.336-0.7,2.027c-0.956,3.775-1.96,7.541-2.8,11.343c-0.739,3.347-1.269,6.739-1.251,10.187
	c0.003,0.719-0.011,1.446,0.086,2.155c0.131,0.96,0.717,1.613,1.682,1.783c0.936,0.165,1.889,0.261,2.839,0.316
	c3.505,0.204,7.018,0.113,10.525,0.491c4.517,0.488,9.062,0.727,13.594,1.089c2.225,0.178,4.452,0.345,6.669,0.597
	c3.561,0.403,7.115,0.869,10.67,1.314c1.186,0.149,2.369,0.32,3.554,0.476c1.658,0.219,3.324,0.39,4.975,0.66
	c3.376,0.552,6.744,1.156,10.116,1.738c3.292,0.568,6.596,1.082,9.875,1.716c3.277,0.634,6.539,1.347,9.8,2.071
	c4.657,1.033,9.29,2.157,13.925,3.279c5.643,1.367,11.184,3.087,16.716,4.826c8.421,2.647,16.72,5.634,24.891,8.986
	c6.188,2.539,12.29,5.265,18.273,8.245c11.148,5.553,21.871,11.834,32.027,19.06c3.773,2.685,7.493,5.443,11.089,8.364
	c4.715,3.833,9.25,7.872,13.645,12.071c4.4,4.202,8.515,8.674,12.489,13.271c3.449,3.987,6.646,8.181,9.761,12.436
	c3.306,4.513,6.33,9.207,9.136,14.039c1.959,3.375,3.813,6.816,5.6,10.287c0.955,1.856,2.384,2.688,4.391,2.715
	c0.561,0.007,1.12,0.014,1.68,0.014C706.563,460.895,709.361,460.894,712.161,460.893"/>
<path fill="#FFFEFE" d="M453.579,129.978h0.004c0-3.119,0.003-6.239-0.002-9.359c-0.001-0.639,0.009-1.282-0.052-1.917
	c-0.123-1.276-1.112-1.968-2.339-1.599c-1.745,0.524-3.467,1.125-5.208,1.662c-7.068,2.184-13.801,5.199-20.483,8.321
	c-2.588,1.209-5.05,2.692-7.56,4.066c-1.117,0.61-2.227,1.235-3.314,1.894c-4.359,2.643-8.6,5.466-12.741,8.437
	c-4.021,2.885-7.89,5.968-11.598,9.237c-3.115,2.747-6.095,5.649-9.092,8.528c-3.056,2.936-5.933,6.053-8.696,9.26
	c-4.218,4.893-8.259,9.93-12.024,15.188c-5.011,6.996-9.676,14.21-13.91,21.701c-0.9,1.592-1.733,3.221-2.638,4.81
	c-2.838,4.98-5.366,10.12-7.754,15.322c-2.581,5.623-4.984,11.326-7.274,17.078c-3.053,7.667-5.765,15.451-8.276,23.303
	c-1.666,5.206-3.149,10.472-4.646,15.73c-0.91,3.199-1.743,6.423-2.517,9.658c-1.143,4.778-2.226,9.57-3.287,14.367
	c-0.718,3.251-1.502,6.497-1.984,9.785c-0.461,3.146-1.144,6.248-1.695,9.372c-0.578,3.276-1.068,6.571-1.691,9.842
	c-0.594,3.118-0.909,6.282-1.407,9.418c-0.485,3.06-0.728,6.158-1.079,9.239c-0.036,0.316-0.079,0.631-0.121,0.947
	c-0.259,1.967-0.66,3.928-0.739,5.902c-0.083,2.08-0.424,4.123-0.677,6.172c-0.156,1.262-0.295,2.523-0.401,3.79
	c-0.112,1.346-0.278,2.687-0.389,4.033c-0.215,2.619-0.26,5.262-0.652,7.854c-0.35,2.309-0.285,4.611-0.393,6.916
	c-0.068,1.45,0.523,2.471,1.929,2.928c1.128,0.367,2.289,0.635,3.404,1.034c3.073,1.099,6.269,1.683,9.446,2.354
	c2.331,0.491,4.681,0.86,7.033,1.223c1.748,0.269,3.511,0.254,5.261,0.14c1.558-0.102,2.206-0.897,2.286-2.507
	c0.17-3.424,0.332-6.849,0.496-10.274c0.015-0.32-0.008-0.644,0.036-0.959c0.478-3.472,0.725-6.962,0.882-10.462
	c0.114-2.546,0.273-5.095,0.557-7.626c0.335-3.003,0.843-5.986,0.929-9.015c0.004-0.16-0.001-0.323,0.031-0.478
	c0.437-2.103,0.517-4.258,0.9-6.366c0.272-1.495,0.238-3.029,0.531-4.498c0.776-3.896,1.072-7.867,1.901-11.745
	c0.285-1.335,0.309-2.683,0.577-4.008c0.425-2.097,0.922-4.188,1.197-6.306c0.308-2.37,0.886-4.676,1.38-7.002
	c0.626-2.945,1.337-5.872,2.004-8.808c0.718-3.17,1.309-6.374,2.166-9.505c1.675-6.112,3.401-12.214,5.282-18.265
	c1.884-6.056,4.038-12.027,6.317-17.945c2.311-6,4.778-11.936,7.524-17.757c2.817-5.972,5.761-11.875,9.001-17.625
	c3.712-6.588,7.665-13.027,12.031-19.212c3.819-5.41,7.771-10.718,12.077-15.745c3.896-4.55,7.85-9.058,12.184-13.209
	c1.672-1.601,3.376-3.172,5.09-4.728c2.01-1.826,4.038-3.633,6.079-5.424c1.02-0.895,2.059-1.772,3.138-2.593
	c2.979-2.268,5.948-4.554,8.989-6.738c4.201-3.02,8.534-5.846,13.035-8.407c2.765-1.573,5.514-3.174,8.307-4.695
	c1.784-0.972,2.702-2.323,2.656-4.416C453.524,136.858,453.579,133.417,453.579,129.978"/>
<path fill="#FFFEFE" d="M381.547,716.704h-0.005c0,3.199-0.002,6.399,0.001,9.6c0.001,0.56-0.014,1.122,0.035,1.679
	c0.106,1.202,0.871,1.888,2.045,1.849c0.636-0.021,1.243-0.145,1.865-0.343c3.4-1.08,6.757-2.275,10.118-3.468
	c6.897-2.448,13.534-5.458,19.983-8.896c5.481-2.921,10.798-6.118,15.897-9.667c3.468-2.414,6.845-4.949,10.125-7.618
	c3.595-2.924,7.154-5.89,10.45-9.146c3.694-3.651,7.427-7.265,10.812-11.224c2.854-3.337,5.713-6.668,8.395-10.145
	c4.43-5.74,8.581-11.677,12.416-17.84c4.46-7.167,8.536-14.542,12.315-22.085c0.817-1.633,1.479-3.344,2.323-4.962
	c2.062-3.951,3.698-8.096,5.463-12.175c2.11-4.873,4.057-9.832,5.779-14.856c2.672-7.795,5.419-15.571,7.541-23.546
	c1.263-4.748,2.61-9.47,3.838-14.227c1.349-5.223,2.398-10.508,3.64-15.751c0.657-2.775,1.269-5.563,1.805-8.364
	c0.732-3.818,1.364-7.655,2.054-11.479c0.241-1.332,0.296-2.705,0.587-4.007c0.816-3.648,1.079-7.382,1.848-11.029
	c0.298-1.416,0.301-2.85,0.516-4.259c0.347-2.277,0.732-4.544,0.969-6.841c0.147-1.419,0.149-2.885,0.482-4.257
	c0.474-1.953,0.45-3.949,0.719-5.911c0.333-2.433,0.743-4.89,0.661-7.374c-0.008-0.239-0.003-0.483,0.039-0.718
	c0.475-2.665,0.759-5.35,0.9-8.053c0.129-2.466,0.337-4.927,0.51-7.391c0.011-0.158,0.007-0.323,0.048-0.475
	c0.553-2.036,0.341-4.124,0.434-6.191c0.044-0.98-0.418-1.672-1.151-2.24c-0.383-0.299-0.817-0.451-1.278-0.608
	c-3.301-1.134-6.669-2.012-10.064-2.811c-2.476-0.583-4.989-0.94-7.496-1.305c-1.492-0.216-3.033-0.137-4.55-0.109
	c-0.972,0.018-1.643,0.591-1.925,1.52c-0.252,0.834-0.45,1.673-0.439,2.574c0.021,1.679,0.094,3.388-0.184,5.027
	c-0.229,1.351-0.18,2.706-0.404,4.033c-0.24,1.42-0.342,2.841-0.425,4.272c-0.138,2.385-0.343,4.766-0.521,7.147
	c-0.006,0.079,0.006,0.164-0.019,0.238c-0.635,1.916-0.213,3.975-0.796,5.896c-0.093,3.026-0.577,6.01-0.987,9.004
	c-0.464,3.382-0.821,6.773-1.388,10.146c-0.395,2.345-0.623,4.722-1.058,7.065c-0.145,0.779-0.373,1.551-0.431,2.336
	c-0.181,2.467-0.884,4.841-1.215,7.282c-0.287,2.117-0.877,4.192-1.175,6.31c-0.422,2.992-1.155,5.916-1.792,8.859
	c-0.655,3.02-1.43,6.013-2.101,9.029c-0.93,4.18-1.958,8.334-3.132,12.45c-0.956,3.352-2.073,6.657-3.016,10.013
	c-2.129,7.564-4.808,14.939-7.583,22.28c-1.038,2.746-2.253,5.423-3.32,8.157c-2.342,6-5.164,11.782-7.98,17.563
	c-1.566,3.214-3.41,6.292-5.095,9.449c-1.874,3.514-3.924,6.923-6.073,10.27c-3.96,6.167-8.08,12.217-12.564,18.03
	c-3.613,4.685-7.418,9.192-11.446,13.505c-3.928,4.204-8.016,8.255-12.314,12.097c-3.397,3.036-6.874,5.971-10.469,8.756
	c-7.248,5.613-14.883,10.654-22.949,15.026c-2.237,1.213-4.465,2.439-6.722,3.613c-1.112,0.578-2.003,1.34-2.353,2.56
	c-0.171,0.599-0.182,1.259-0.185,1.89C381.538,710.145,381.547,713.424,381.547,716.704"/>
<path fill="#FFFEFE" d="M853.029,595.822c8.503,0.253,16.968-0.1,25.423-0.562c2.383-0.131,4.774-0.303,7.158-0.481
	c0.081-0.006,0.163,0.004,0.241-0.01c3.044-0.574,6.142-0.739,9.199-1.256c3.372-0.569,6.692-1.283,9.907-2.448
	c5.189-1.88,9.012-5.258,11.395-10.284c1.628-3.435,2.396-7.069,2.692-10.809c0.164-2.067,0.077-4.156,0.054-6.235
	c-0.032-2.651-0.593-5.225-1.496-7.696c-1.474-4.026-4.02-7.225-7.764-9.389c-1.583-0.915-3.272-1.595-5.029-2.121
	c-4.892-1.461-9.929-2.149-14.962-2.83c-2.759-0.37-5.531-0.633-8.306-0.87c-2.461-0.211-4.932-0.275-7.396-0.458
	c-4.616-0.341-9.25-0.426-13.877-0.6c-2.949-0.11-5.896-0.144-8.848-0.329c-4.139-0.26-8.292-0.335-12.43-0.662
	c-2.224-0.174-4.478-0.203-6.661-0.605c-1.397-0.258-2.821-0.343-4.219-0.719c-2.065-0.555-3.4-1.744-4.006-3.7
	c-0.734-2.365-1.057-4.771-0.596-7.278c0.423-2.293,1.576-3.955,3.557-5.099c0.689-0.398,1.406-0.714,2.18-0.938
	c1.84-0.534,3.733-0.729,5.606-1.059c2.602-0.46,5.256-0.197,7.836-0.758c9.425-0.031,18.853-0.481,28.272,0.335
	c1.672,0.145,3.324,0.379,4.974,0.631c3.09,0.472,5.225,2.183,6.272,5.18c0.476,1.357,0.896,2.724,0.943,4.174
	c0.023,0.724,0.141,1.421,0.397,2.106c0.136,0.359,0.352,0.495,0.694,0.503c0.4,0.009,0.8,0.009,1.199,0.009
	c9.358,0,18.716,0,28.074-0.001c0.399,0,0.8-0.001,1.198-0.016c0.358-0.015,0.61-0.175,0.608-0.567
	c-0.01-2.32,0.021-4.64-0.059-6.956c-0.081-2.327-0.697-4.559-1.581-6.7c-1.855-4.484-5.132-7.627-9.443-9.733
	c-4.403-2.151-9.162-3.051-13.945-3.791c-1.804-0.279-3.649-0.404-5.443-0.687c-2.451-0.385-4.95-0.117-7.364-0.72
	c-5.43-0.072-10.84-0.66-16.278-0.576c-3.438,0.054-6.878-0.033-10.316,0.005c-4.949,0.053-9.9-0.094-14.845,0.369
	c-2.936,0.274-5.893,0.187-8.841,0.5c-3.005,0.319-6.013,0.59-9.015,0.957c-2.928,0.357-5.805,0.923-8.667,1.563
	c-2.871,0.641-5.663,1.555-8.267,2.962c-4.298,2.32-7.397,5.728-9.266,10.252c-1.137,2.755-1.62,5.661-1.849,8.593
	c-0.281,3.591,0.01,7.165,0.857,10.681c0.997,4.144,2.945,7.704,6.232,10.499c2.364,2.012,5.152,3.104,8.066,3.959
	c2.743,0.808,5.559,1.298,8.36,1.832c1.636,0.313,3.331,0.318,4.964,0.642c1.735,0.345,3.495,0.298,5.225,0.549
	c1.187,0.173,2.367,0.288,3.561,0.372c1.267,0.09,2.529,0.271,3.795,0.365c2.383,0.177,4.772,0.199,7.157,0.42
	c3.73,0.344,7.491,0.282,11.237,0.486c6.696,0.364,13.408,0.456,20.113,0.663c0.48,0.015,0.963,0.017,1.438,0.072
	c2.288,0.269,4.569,0.586,6.859,0.823c1.436,0.148,2.801,0.536,4.174,0.944c2.706,0.808,3.969,2.724,4.383,5.393
	c0.293,1.903,0.176,3.798-0.063,5.679c-0.202,1.581-0.681,3.107-1.654,4.418c-1.205,1.622-2.898,2.409-4.816,2.861
	c-3.734,0.88-7.545,1.133-11.349,1.383c-2.551,0.168-5.116,0.123-7.676,0.129c-9.027,0.021-18.061,0.147-27.067-0.604
	c-2.213-0.185-4.429-0.516-6.599-0.985c-2.415-0.523-4.096-1.993-4.857-4.442c-0.404-1.296-0.773-2.585-0.821-3.948
	c-0.04-1.118-0.054-2.238-0.104-3.356c-0.019-0.392-0.084-0.786-0.175-1.168c-0.155-0.667-0.336-0.808-0.957-0.828
	c-0.239-0.008-0.48,0-0.72,0h-27.113c-0.319,0-0.643-0.032-0.96-0.002c-0.83,0.078-2.051,1.253-2.065,2.051
	c-0.066,3.755,0.043,7.516,1.063,11.149c1.004,3.575,2.748,6.769,5.471,9.389c2.523,2.432,5.516,4.009,8.804,5.097
	c4.468,1.477,9.099,2.192,13.738,2.814c3.151,0.423,6.327,0.715,9.503,0.916c4.14,0.262,8.289,0.445,12.436,0.534
	C844.739,595.892,848.899,595.822,853.029,595.822"/>
<path fill="#FFFEFE" d="M661.129,460.937v-0.042h12.479c0.719,0,1.421-0.044,2.122-0.283c1.141-0.392,1.61-1.228,1.185-2.394
	c-0.382-1.047-0.773-2.096-1.254-3.1c-2.344-4.896-4.993-9.616-8.169-14.035c-3.315-4.613-6.908-9.001-10.81-13.122
	c-2.362-2.493-4.886-4.836-7.375-7.205c-5.918-5.629-12.359-10.621-19.023-15.316c-9.267-6.529-19.025-12.251-29.113-17.421
	c-7.37-3.776-14.914-7.163-22.566-10.319c-6.323-2.606-12.753-4.923-19.197-7.202c-5.168-1.828-10.448-3.298-15.685-4.905
	c-2.278-0.7-4.567-1.382-6.882-1.943c-8.65-2.097-17.234-4.476-25.986-6.14c-1.953-0.372-3.901-0.766-5.858-1.109
	c-3.136-0.55-6.297-0.974-9.412-1.622c-3.745-0.779-7.535-1.227-11.307-1.805c-1.652-0.253-3.325-0.374-4.982-0.595
	c-1.656-0.222-3.299-0.549-4.958-0.733c-3.486-0.387-6.98-0.704-10.469-1.066c-0.947-0.098-1.885-0.297-2.835-0.376
	c-1.986-0.166-3.978-0.186-5.966-0.422c-3.401-0.405-6.821-0.654-10.235-0.945c-0.716-0.061-1.445-0.074-2.159-0.011
	c-1.582,0.141-2.456,1.029-2.527,2.632c-0.072,1.596-0.101,3.2-0.041,4.797c0.142,3.766-0.449,7.49-0.568,11.24
	c-0.01,0.315-0.1,0.628-0.158,0.941c-0.363,1.953-0.752,3.903-1.077,5.863c-0.117,0.704-0.124,1.434-0.103,2.15
	c0.023,0.813,0.462,1.34,1.284,1.499c0.855,0.166,1.703,0.351,2.597,0.354c3.679,0.016,7.358,0.098,11.036,0.162
	c0.72,0.012,1.441,0.029,2.158,0.083c3.576,0.264,7.151,0.549,10.728,0.811c2.865,0.209,5.732,0.396,8.598,0.593
	c0.16,0.011,0.321,0.012,0.479,0.033c4.576,0.61,9.154,1.21,13.728,1.838c1.654,0.226,3.299,0.516,4.948,0.778
	c2.121,0.338,4.243,0.667,6.361,1.017c3.299,0.547,6.617,1.008,9.888,1.688c4.667,0.971,9.296,2.119,13.947,3.168
	c8.068,1.822,15.996,4.134,23.881,6.62c10.71,3.378,21.167,7.404,31.365,12.097c7.308,3.362,14.472,7.02,21.353,11.188
	c8.963,5.426,17.473,11.479,25.229,18.568c5.45,4.98,10.426,10.362,14.787,16.313c1.368,1.867,2.671,3.783,3.951,5.712
	c0.771,1.163,1.888,1.683,3.178,1.898c0.625,0.106,1.276,0.065,1.916,0.066C653.45,460.939,657.289,460.937,661.129,460.937"/>
<path fill="#FFFEFE" d="M176.313,386.135c-3.918,0-7.837-0.003-11.756,0.004c-0.719,0.001-1.457-0.052-2.152,0.09
	c-1.29,0.263-1.819,1.064-1.618,2.225c0.093,0.541,0.272,1.081,0.493,1.586c0.99,2.261,2.062,4.477,3.252,6.646
	c4.758,8.678,10.829,16.358,17.651,23.474c4.707,4.911,9.774,9.426,15.047,13.723c6.257,5.1,12.849,9.731,19.651,14.055
	c10.167,6.462,20.826,12.034,31.774,17.05c8.459,3.875,17.107,7.292,25.866,10.432c4.866,1.743,9.797,3.279,14.733,4.804
	c2.657,0.819,5.312,1.65,7.994,2.383c4.677,1.277,9.36,2.536,14.066,3.702c4.551,1.127,9.116,2.206,13.734,3.051
	c2.972,0.544,5.921,1.205,8.889,1.77c3.516,0.67,7.029,1.373,10.566,1.915c4.092,0.628,8.209,1.095,12.315,1.634
	c1.5,0.197,2.999,0.409,4.499,0.603c1.974,0.254,3.948,0.508,5.924,0.741c0.634,0.075,1.286,0.021,1.913,0.128
	c4.169,0.706,8.384,0.945,12.589,1.297c2.936,0.246,5.865,0.574,8.802,0.817c0.943,0.078,1.886,0.102,2.846-0.159
	c1.135-0.31,1.809-0.947,2.062-2.059c0.265-1.163,0.529-2.328,0.748-3.501c0.557-2.979,0.864-5.99,1.078-9.011
	c0.119-1.673,0.146-3.354,0.168-5.033c0.032-2.318,0.074-4.64,0.009-6.956c-0.056-1.946-0.85-2.67-2.837-2.782
	c-0.798-0.045-1.599-0.018-2.399-0.031c-3.118-0.058-6.239-0.046-9.353-0.2c-3.501-0.175-6.994-0.515-10.493-0.758
	c-3.183-0.221-6.369-0.407-9.554-0.61c-0.238-0.015-0.476-0.048-0.713-0.076c-2.055-0.25-4.109-0.51-6.165-0.751
	c-3.162-0.374-6.338-0.659-9.484-1.144c-1.265-0.195-2.54-0.243-3.795-0.459c-4.468-0.77-8.94-1.521-13.392-2.377
	c-4.684-0.899-9.385-1.755-14.009-2.908c-7.554-1.885-15.107-3.79-22.546-6.117c-9.261-2.898-18.385-6.159-27.294-10.006
	c-5.697-2.459-11.36-4.987-16.836-7.928c-4.495-2.413-8.963-4.867-13.286-7.573c-7.383-4.624-14.409-9.726-20.969-15.48
	c-6.821-5.982-12.97-12.547-18.145-20.008c-1.001-1.443-2.012-2.879-2.986-4.339c-0.773-1.158-1.89-1.676-3.213-1.813
	c-0.634-0.065-1.278-0.043-1.918-0.044C184.15,386.135,180.232,386.137,176.313,386.135"/>
<path fill="#FFFEFE" d="M708.18,595.79c6.389-0.061,12.783,0.264,19.169-0.314c2.934-0.266,5.896-0.096,8.838-0.504
	c1.728-0.24,3.486-0.252,5.232-0.449c2.53-0.286,5.044-0.639,7.563-0.996c3.077-0.436,6.085-1.13,9.04-2.042
	c3.553-1.098,6.697-2.907,9.262-5.674c2.787-3.01,4.367-6.613,5.416-10.509c1.136-4.219,1.069-8.532,1.047-12.841
	c-0.006-1.169-0.955-2.048-2.145-2.09c-0.4-0.014-0.801-0.003-1.201-0.003h-25.918c-0.481,0-0.961,0.019-1.441-0.004
	c-0.525-0.022-0.883,0.233-1.252,0.578c-0.566,0.53-0.799,1.113-0.768,1.908c0.067,1.757,0.186,3.533,0.007,5.273
	c-0.447,4.354-2.856,7.083-6.655,8.1c-1.842,0.493-3.721,0.774-5.604,1.071c-3.001,0.475-6.029,0.667-9.039,0.779
	c-7.995,0.302-15.997,0.221-23.997,0.046c-0.72-0.016-1.442-0.024-2.157-0.099c-2.531-0.262-5.061-0.547-7.592-0.829
	c-2.373-0.266-4.691-0.808-6.968-1.508c-2.439-0.75-4.147-2.293-4.912-4.783c-0.234-0.76-0.535-1.502-0.714-2.273
	c-0.508-2.171-0.824-4.373-1.146-6.581c-0.404-2.771-0.518-5.559-0.674-8.329c-0.241-4.309-0.112-8.636-0.122-12.956
	c-0.008-3.36,0.467-6.681,1.049-9.976c0.303-1.711,0.868-3.384,1.609-4.976c0.846-1.822,2.175-3.128,4.111-3.749
	c0.755-0.242,1.522-0.445,2.291-0.635c2.163-0.538,4.36-0.827,6.573-1.101c1.428-0.176,2.852-0.254,4.277-0.368
	c1.507-0.121,3.013-0.363,4.521-0.373c9.668-0.062,19.338-0.446,29.001,0.352c2.626,0.217,5.22,0.581,7.788,1.097
	c3.23,0.65,5.458,2.549,6.324,5.798c0.347,1.301,0.673,2.628,0.61,4.006c-0.035,0.719-0.024,1.44,0.001,2.16
	c0.039,1.146,1.142,2.229,2.312,2.286c0.319,0.018,0.641,0.005,0.96,0.005h26.159c0.401,0,0.804,0.032,1.199-0.006
	c1.092-0.104,2.083-1.153,2.089-2.246c0.025-4.241-0.236-8.447-1.525-12.531c-1.646-5.221-4.648-9.37-9.407-12.2
	c-1.933-1.149-3.999-1.96-6.125-2.596c-3.115-0.932-6.298-1.56-9.519-2.076c-3.304-0.529-6.628-0.824-9.942-1.175
	c-3.329-0.353-6.69-0.434-10.041-0.553c-2.637-0.094-5.278-0.085-7.918-0.087c-4.721-0.003-9.441-0.041-14.159,0.05
	c-4.71,0.093-9.426,0.211-14.122,0.543c-2.547,0.181-5.098,0.316-7.645,0.486c-0.08,0.005-0.161-0.002-0.24,0.008
	c-2.05,0.264-4.095,0.577-6.15,0.782c-3.168,0.317-6.296,0.843-9.425,1.427c-3.602,0.674-7.115,1.613-10.529,2.922
	c-5.898,2.265-10.366,6.17-13.313,11.768c-2.375,4.509-3.609,9.375-3.843,14.417c-0.308,6.624-0.277,13.257,0.279,19.883
	c0.274,3.259,0.597,6.503,1.029,9.744c0.58,4.352,1.57,8.602,3.019,12.737c0.897,2.558,2.076,4.989,3.719,7.183
	c1.309,1.747,2.821,3.247,4.689,4.388c2.532,1.546,5.292,2.538,8.115,3.381c4.812,1.438,9.771,2.142,14.728,2.809
	c3.152,0.425,6.331,0.689,9.506,0.909c3.581,0.248,7.17,0.447,10.759,0.516C698.899,595.856,703.54,595.79,708.18,595.79"/>
<path fill="#FFFEFE" d="M381.523,665.938c0,4.159-0.003,8.319,0.002,12.479c0.001,0.639-0.019,1.288,0.083,1.915
	c0.16,0.983,1.199,1.576,2.175,1.272c0.68-0.213,1.347-0.476,2.005-0.751c4.709-1.974,9.121-4.506,13.348-7.345
	c5.776-3.877,11.15-8.267,16.095-13.165c3.236-3.207,6.447-6.434,9.442-9.878c3.197-3.678,6.261-7.453,9.159-11.363
	c3.272-4.414,6.317-8.983,9.246-13.639c3.011-4.786,5.861-9.662,8.477-14.668c4.05-7.748,7.871-15.604,11.175-23.71
	c1.976-4.85,3.925-9.706,5.68-14.641c2.924-8.216,5.586-16.516,7.859-24.937c1.052-3.9,2.218-7.777,3.071-11.722
	c1.023-4.727,2.212-9.414,3.162-14.158c0.591-2.953,1.092-5.924,1.686-8.877c0.468-2.333,0.62-4.73,1.113-7.058
	c0.594-2.802,0.8-5.657,1.364-8.456c0.316-1.567,0.344-3.168,0.63-4.723c0.346-1.88,0.342-3.796,0.766-5.663
	c0.244-1.079,0.362-2.195,0.448-3.301c0.135-1.744,0.208-3.485,0.428-5.231c0.427-3.39,0.661-6.807,0.969-10.212
	c0.316-3.493,0.388-7.007,0.579-10.511c0.082-1.508,0.022-3.016,0.346-4.522c0.214-0.996,0.128-2.072,0.084-3.109
	c-0.062-1.484-0.754-2.582-2.211-3.081c-0.823-0.281-1.653-0.562-2.499-0.752c-3.024-0.686-6.139-0.827-9.168-1.461
	c-1.713-0.358-3.46-0.41-5.175-0.796c-1.621-0.364-3.258-0.688-4.893-1.007c-1.551-0.303-2.5,0.543-2.792,1.912
	c-0.066,0.311-0.044,0.639-0.059,0.957c-0.098,2.069-0.141,4.133-0.368,6.202c-0.357,3.244-0.421,6.521-0.626,9.782
	c-0.161,2.544-0.347,5.087-0.523,7.63c-0.011,0.158-0.015,0.321-0.057,0.472c-0.555,2.009-0.441,4.1-0.76,6.142
	c-0.343,2.198-0.422,4.438-0.619,6.658c-0.021,0.237-0.059,0.474-0.105,0.707c-0.382,1.949-0.741,3.901-0.834,5.894
	c-0.026,0.551-0.155,1.097-0.242,1.646c-0.235,1.489-0.487,2.977-0.705,4.469c-0.195,1.337-0.304,2.688-0.54,4.017
	c-0.388,2.185-0.914,4.345-1.265,6.534c-0.579,3.604-1.214,7.197-2.002,10.762c-1.01,4.566-1.966,9.146-3.063,13.691
	c-1.376,5.699-2.896,11.363-4.636,16.965c-1.175,3.784-2.178,7.631-3.533,11.348c-2.389,6.557-4.587,13.188-7.455,19.563
	c-1.367,3.04-2.553,6.165-3.99,9.17c-2.643,5.523-5.395,10.992-8.5,16.28c-2.825,4.808-5.78,9.521-8.99,14.085
	c-3.679,5.231-7.682,10.188-12.07,14.837c-5.61,5.941-11.71,11.306-18.626,15.7c-0.537,0.342-1.068,0.696-1.562,1.097
	c-0.98,0.795-1.531,1.815-1.509,3.11c0.009,0.56-0.014,1.119-0.015,1.68C381.522,658.099,381.523,662.019,381.523,665.938"/>
<path fill="#FFFEFE" d="M453.581,181.225h0.003c0-4.158,0.002-8.317-0.003-12.475c-0.001-0.639,0.017-1.286-0.073-1.916
	c-0.139-0.977-1.168-1.662-2.127-1.445c-0.461,0.104-0.918,0.266-1.345,0.469c-4.969,2.357-9.725,5.07-14.192,8.297
	c-3.043,2.197-5.947,4.564-8.785,7.008c-2.358,2.032-4.658,4.146-6.831,6.372c-2.395,2.454-4.605,5.089-6.915,7.626
	c-3.82,4.194-7.234,8.715-10.583,13.279c-2.872,3.914-5.486,8.006-8.1,12.099c-3.513,5.504-6.692,11.193-9.741,16.958
	c-2.192,4.144-4.274,8.344-6.234,12.608c-1.922,4.184-3.73,8.416-5.53,12.654c-2.918,6.867-5.356,13.91-7.852,20.931
	c-1.272,3.58-2.292,7.25-3.397,10.888c-0.829,2.728-1.662,5.457-2.404,8.209c-1.113,4.13-2.16,8.278-3.211,12.425
	c-0.564,2.226-1.105,4.46-1.608,6.701c-0.73,3.248-1.439,6.499-2.077,9.768c-0.623,3.191-1.17,6.394-1.773,9.588
	c-0.236,1.247-0.295,2.534-0.607,3.759c-0.842,3.316-1.019,6.742-1.752,10.074c-0.461,2.096-0.578,4.247-0.86,6.368
	c-0.461,3.465-1.03,6.927-1.134,10.434c-0.008,0.239,0.002,0.483-0.037,0.718c-0.468,2.826-0.869,5.659-0.936,8.529
	c-0.006,0.239,0.041,0.499-0.036,0.715c-0.488,1.396-0.24,2.853-0.389,4.275c-0.157,1.502-0.312,3.004-0.468,4.505
	c-0.107,1.027-0.109,2.05-0.317,3.083c-0.233,1.156-0.183,2.397-0.082,3.586c0.114,1.354,0.742,2.426,2.221,2.748
	c0.618,0.135,1.226,0.328,1.848,0.436c2.269,0.391,4.511,0.949,6.823,1.064c1.202,0.536,2.522,0.284,3.767,0.561
	c1.315,0.293,2.639,0.57,3.973,0.742c1.734,0.223,3.457,0.467,5.152,0.909c0.843,0.219,1.713,0.34,2.575,0.471
	c1.722,0.262,2.801-0.592,2.889-2.305c0.143-2.785,0.271-5.57,0.384-8.355c0.107-2.625-0.056-5.252,0.365-7.878
	c0.263-1.644,0.096-3.353,0.192-5.029c0.1-1.746,0.327-3.485,0.421-5.231c0.146-2.706,0.609-5.388,0.561-8.106
	c-0.005-0.236,0.052-0.474,0.091-0.708c0.365-2.195,0.755-4.386,0.84-6.616c0.018-0.478,0.026-0.961,0.096-1.432
	c0.268-1.805,0.559-3.605,0.844-5.407c0.136-0.861,0.302-1.718,0.409-2.583c0.118-0.944,0.191-1.881,0.396-2.827
	c0.471-2.168,0.719-4.384,1.063-6.579c0.369-2.353,0.655-4.723,1.138-7.053c1.016-4.886,2.1-9.759,3.225-14.622
	c1.677-7.256,3.582-14.452,5.735-21.586c2.339-7.744,4.948-15.397,7.875-22.931c2.789-7.176,5.881-14.229,9.312-21.133
	c2.196-4.419,4.562-8.744,7.054-12.993c3.586-6.113,7.463-12.05,11.844-17.63c2.463-3.135,5.041-6.186,7.695-9.162
	c2.606-2.922,5.416-5.648,8.403-8.197c3.155-2.693,6.333-5.342,9.857-7.551c0.883-0.553,1.621-1.275,2.058-2.276
	c0.337-0.77,0.28-1.565,0.283-2.355C453.588,189.542,453.581,185.384,453.581,181.225"/>
<path fill="#FFFEFE" d="M381.522,608.054c0,1.76,0,3.519,0,5.279c0,3.839-0.007,7.679,0.007,11.519
	c0.003,0.633,0.04,1.277,0.163,1.896c0.126,0.635,0.952,0.979,1.54,0.704c0.732-0.342,1.343-0.846,1.904-1.427
	c2.107-2.185,4.284-4.296,6.297-6.578c3.067-3.477,5.956-7.093,8.626-10.868c4.736-6.699,8.906-13.753,12.68-21.039
	c2.194-4.235,4.176-8.568,6.113-12.927c2.742-6.166,5.123-12.471,7.423-18.812c1.704-4.697,3.192-9.461,4.672-14.229
	c1.292-4.164,2.572-8.332,3.619-12.563c0.951-3.845,1.908-7.689,2.811-11.548c0.993-4.246,1.976-8.489,2.75-12.781
	c0.408-2.261,0.899-4.507,1.338-6.762c0.333-1.713,0.691-3.423,0.954-5.146c0.417-2.745,1.017-5.461,1.375-8.21
	c0.37-2.836,1.029-5.635,1.142-8.505c0.012-0.317,0.069-0.632,0.118-0.945c0.243-1.567,0.555-3.127,0.722-4.703
	c0.25-2.375,0.401-4.761,0.592-7.142c0.026-0.319-0.021-0.659,0.075-0.953c0.551-1.685,0.238-3.494,0.773-5.177
	c-0.025-2.637,0.351-5.245,0.534-7.868c0.072-1.028-0.004-2.06,0.349-3.08c0.199-0.576,0.13-1.274,0.063-1.906
	c-0.142-1.324-0.855-1.985-2.19-2.063c-1.986-0.117-3.974-0.22-5.963-0.286c-2.238-0.075-4.482-0.041-6.716-0.172
	c-1.824-0.106-3.646-0.325-5.453-0.604c-2.193-0.337-4.366-0.805-6.553-1.185c-0.993-0.173-1.98,0.396-2.287,1.321
	c-0.199,0.599-0.384,1.231-0.405,1.855c-0.1,3.028-0.229,6.05-0.504,9.072c-0.309,3.413-0.421,6.844-0.622,10.266
	c-0.014,0.237-0.053,0.474-0.081,0.71c-0.269,2.288-0.566,4.573-0.798,6.864c-0.217,2.138-0.366,4.283-0.545,6.426
	c-0.013,0.159-0.015,0.321-0.048,0.476c-0.476,2.179-0.787,4.379-0.891,6.607c-0.015,0.319,0.002,0.646-0.06,0.957
	c-0.421,2.104-0.744,4.218-0.974,6.355c-0.135,1.26-0.212,2.552-0.493,3.776c-0.586,2.563-0.757,5.182-1.276,7.749
	c-0.487,2.409-0.868,4.839-1.334,7.251c-0.316,1.634-0.697,3.255-1.05,4.882c-0.874,4.027-1.708,8.065-2.635,12.081
	c-1.355,5.869-3.118,11.63-4.877,17.389c-1.321,4.325-2.869,8.568-4.518,12.778c-1.883,4.807-3.872,9.563-6.114,14.213
	c-2.732,5.667-5.914,11.081-9.255,16.403c-0.616,0.979-1.016,1.969-0.986,3.131c0.018,0.719-0.011,1.439-0.011,2.159
	C381.521,597.814,381.522,602.934,381.522,608.054"/>
<path fill="#FFFEFE" d="M234.291,386.156v-0.021c-5.359,0-10.719-0.002-16.078,0.003c-0.719,0-1.444-0.014-2.155,0.076
	c-1.09,0.138-1.534,1.243-0.889,2.169c0.272,0.391,0.609,0.741,0.94,1.087c4.875,5.09,10.126,9.753,15.784,13.963
	c4.357,3.241,8.876,6.229,13.525,9.034c8.879,5.355,18.143,9.94,27.666,14.024c9.359,4.014,18.947,7.4,28.647,10.476
	c8.262,2.619,16.659,4.758,25.104,6.701c3.872,0.892,7.787,1.6,11.682,2.389c1.558,0.315,3.111,0.649,4.675,0.929
	c2.583,0.461,5.172,0.896,7.761,1.322c2.357,0.387,4.714,0.777,7.08,1.104c1.893,0.262,3.809,0.374,5.7,0.653
	c2.682,0.396,5.361,0.782,8.073,0.901c0.478,0.021,0.954,0.084,1.429,0.139c1.977,0.229,3.949,0.534,5.933,0.676
	c3.503,0.253,7.014,0.409,10.521,0.604c0.479,0.026,0.975-0.026,1.435,0.079c1.971,0.449,3.974,0.303,5.964,0.385
	c0.16,0.006,0.32,0.007,0.48-0.001c1.797-0.081,2.555-0.831,2.677-2.681c0.036-0.558,0.024-1.119,0.024-1.679
	c0.001-3.041-0.001-6.08-0.002-9.12c-0.001-3.919,0.001-7.838-0.008-11.757c-0.002-0.719,0.02-1.449-0.098-2.153
	c-0.197-1.174-0.878-1.782-2.097-1.955c-0.864-0.123-1.739-0.246-2.608-0.248c-5.674-0.014-11.345-0.021-17.003-0.546
	c-2.063-0.19-4.136-0.248-6.204-0.414c-3.338-0.269-6.662-0.629-9.99-0.992c-3.09-0.338-6.181-0.652-9.258-1.102
	c-1.654-0.24-3.319-0.41-4.97-0.671c-2.435-0.382-4.862-0.818-7.293-1.227c-2.355-0.397-4.723-0.729-7.065-1.193
	c-4.599-0.913-9.165-1.983-13.712-3.13c-5.624-1.419-11.244-2.849-16.761-4.651c-6.273-2.047-12.483-4.243-18.602-6.738
	c-9.918-4.045-19.39-8.898-28.377-14.707c-1.803-1.165-3.702-1.759-5.853-1.743C245.009,386.184,239.649,386.156,234.291,386.156"/>
<path fill="#FFFEFE" d="M602.382,460.88v0.041c4.801,0,9.601,0.001,14.399-0.002c0.64,0,1.281-0.041,1.919-0.026
	c0.52,0.012,0.918-0.231,1.297-0.528c0.408-0.316,0.485-0.79,0.3-1.266c-0.269-0.692-0.755-1.215-1.23-1.756
	c-2.482-2.823-5.104-5.502-7.903-8.022c-3.864-3.48-7.931-6.695-12.182-9.685c-7.057-4.961-14.442-9.357-22.16-13.217
	c-5.485-2.744-11.032-5.345-16.703-7.67c-7.874-3.229-15.872-6.121-24.009-8.632c-5.09-1.572-10.218-2.999-15.371-4.349
	c-4.615-1.208-9.26-2.283-13.916-3.311c-3.029-0.669-6.069-1.295-9.122-1.841c-3.444-0.617-6.924-1.035-10.358-1.701
	c-3.756-0.729-7.565-1.093-11.323-1.775c-1.898-0.345-3.823-0.303-5.707-0.597c-3.705-0.577-7.439-0.851-11.162-1.201
	c-3.654-0.343-7.332-0.438-10.999-0.649c-0.476-0.028-0.953-0.078-1.425-0.148c-2.382-0.352-4.78-0.266-7.174-0.266
	c-0.899,0.001-1.507,0.528-1.832,1.319c-0.303,0.736-0.439,1.517-0.428,2.332c0.035,2.642-0.365,5.248-0.717,7.855
	c-0.213,1.574-0.513,3.137-0.712,4.712c-0.33,2.606-0.63,5.217-0.901,7.829c-0.09,0.872-0.096,1.761-0.065,2.638
	c0.06,1.663,0.857,2.501,2.483,2.618c0.876,0.063,1.759,0.066,2.638,0.048c5.596-0.121,11.177,0.299,16.766,0.465
	c0.399,0.012,0.799,0.028,1.197,0.063c2.697,0.248,5.39,0.655,8.09,0.718c4.163,0.097,8.245,0.896,12.379,1.218
	c1.263,0.098,2.54,0.226,3.802,0.4c3.231,0.45,6.459,0.934,9.687,1.413c2.283,0.34,4.578,0.623,6.843,1.063
	c4.604,0.895,9.217,1.771,13.781,2.851c7.964,1.88,15.89,3.911,23.684,6.44c8.102,2.628,16.042,5.637,23.803,9.155
	c7.42,3.363,14.577,7.184,21.378,11.657c1.871,1.232,3.855,1.825,6.075,1.814C592.463,460.863,597.423,460.88,602.382,460.88"/>
<path fill="#FFFEFE" d="M453.566,239.052h0.002v-3.599c0-4.4,0.007-8.798-0.005-13.198c-0.002-0.633-0.038-1.277-0.161-1.896
	c-0.127-0.637-1.024-0.974-1.546-0.609c-0.457,0.319-0.887,0.683-1.29,1.067c-3.479,3.314-6.567,6.976-9.498,10.771
	c-2.97,3.847-5.76,7.82-8.332,11.948c-2.524,4.053-4.915,8.182-7.166,12.391c-3.599,6.729-6.796,13.646-9.738,20.688
	c-2.386,5.712-4.531,11.511-6.641,17.325c-1.73,4.768-3.124,9.646-4.573,14.504c-0.679,2.276-1.354,4.556-1.947,6.856
	c-1.107,4.295-2.17,8.602-3.22,12.912c-0.695,2.847-1.415,5.692-1.98,8.566c-0.887,4.511-1.662,9.045-2.464,13.573
	c-0.262,1.485-0.447,2.983-0.689,4.471c-0.253,1.565-0.465,3.141-0.819,4.684c-0.36,1.566-0.292,3.171-0.579,4.731
	c-0.404,2.19-0.75,4.376-0.896,6.606c-0.115,1.742-0.313,3.489-0.54,5.218c-0.145,1.102-0.245,2.208-0.362,3.313
	c-0.117,1.104-0.316,2.203-0.385,3.31c-0.226,3.581-0.408,7.165-0.607,10.748c-0.013,0.24,0.014,0.487-0.037,0.718
	c-0.558,2.521-0.358,5.085-0.434,7.633c-0.01,0.319,0.025,0.639,0.03,0.958c0.016,0.906,0.494,1.439,1.295,1.825
	c0.618,0.297,1.24,0.27,1.871,0.281c1.759,0.034,3.543-0.126,5.272,0.115c1.669,0.231,3.329,0.319,5,0.337
	c2.238,0.023,4.425,0.357,6.613,0.814c1.552,0.324,3.143,0.487,4.725,0.626c1.037,0.091,1.463-0.31,1.659-1.291
	c0.265-1.326,0.474-2.657,0.459-4.019c-0.01-0.959-0.121-1.962,0.114-2.868c0.349-1.345,0.238-2.696,0.37-4.04
	c0.134-1.344,0.304-2.685,0.391-4.032c0.143-2.224,0.187-4.447,0.41-6.674c0.339-3.402,0.667-6.806,0.993-10.21
	c0.272-2.849,0.614-5.684,0.956-8.525c0.332-2.76,0.67-5.519,1.076-8.27c0.22-1.492,0.476-2.977,0.625-4.484
	c0.172-1.731,0.422-3.479,0.889-5.149c0.433-1.55,0.323-3.149,0.769-4.699c0.501-1.744,0.691-3.577,1.023-5.371
	c0.404-2.182,0.761-4.376,1.235-6.544c0.695-3.172,1.452-6.331,2.225-9.485c1.565-6.386,3.188-12.76,5.268-18.999
	c0.899-2.698,1.656-5.44,2.688-8.104c0.941-2.432,1.88-4.87,2.828-7.301c0.893-2.288,1.868-4.545,2.887-6.78
	c1.547-3.39,3.273-6.695,4.975-10.009c0.254-0.494,0.548-0.968,0.84-1.44c1.632-2.64,3.238-5.296,4.917-7.906
	c1.118-1.738,1.558-3.584,1.529-5.651C453.518,249.611,453.566,244.331,453.566,239.052"/>
<path fill="#101010" d="M63.296,388.518c0.604-0.103,0.555-0.717,0.756-1.083c0.442-0.803,1.141-1.084,1.931-1.235
	c0.466-0.089,0.957-0.06,1.436-0.06c7.359-0.003,14.718,0.024,22.078-0.017c2.707-0.014,3.986,0.495,4.685,3.566
	c1.092,4.806,2.582,9.509,4.107,14.201c1.997,6.144,4.434,12.103,7.07,17.99c2.838,6.337,6.182,12.401,9.774,18.337
	c4.263,7.045,9.004,13.754,14.184,20.145c3.221,3.973,6.542,7.87,10.175,11.486c1.245,1.239,2.357,2.612,3.617,3.836
	c8.097,7.854,16.628,15.189,25.768,21.817c7.888,5.721,16.095,10.934,24.596,15.684c3.615,2.021,7.26,3.994,10.952,5.868
	c6.46,3.277,13.078,6.22,19.751,9.04c7.842,3.313,15.829,6.246,23.904,8.917c8.527,2.819,17.129,5.417,25.87,7.519
	c3.633,0.873,7.24,1.852,10.878,2.7c3.252,0.758,6.524,1.436,9.799,2.089c4.835,0.963,9.676,1.89,14.523,2.794
	c2.111,0.394,4.239,0.702,6.363,1.028c4.089,0.627,8.176,1.266,12.272,1.846c1.893,0.268,3.804,0.402,5.705,0.616
	c1.345,0.151,2.706,0.242,4.024,0.526c2.274,0.491,4.6,0.392,6.887,0.748c2.202,0.345,4.436,0.492,6.659,0.687
	c3.812,0.331,7.64,0.517,11.435,0.98c3.026,0.371,6.054,0.38,9.083,0.536c1.51,0.078,3.016,0.234,4.525,0.334
	c0.493,0.033,0.931,0.185,1.36,0.414c0.722,0.388,1.094,1.14,0.905,1.954c-0.144,0.618-0.298,1.237-0.501,1.838
	c-2.575,7.609-6.833,14.194-12.253,20.066c-0.434,0.47-0.892,0.919-1.363,1.35c-0.854,0.78-1.848,1.253-3.027,1.236
	c-2.949-0.045-5.901,0.112-8.844-0.351c-1.964-0.309-3.961-0.414-5.946-0.583c-2.386-0.202-4.775-0.355-7.159-0.568
	c-0.869-0.078-1.728-0.272-2.593-0.4c-3.544-0.526-7.13-0.679-10.661-1.355c-2.577-0.494-5.218-0.642-7.809-1.07
	c-3.452-0.573-6.928-0.988-10.354-1.742c-2.951-0.649-5.954-1.058-8.919-1.646c-4.134-0.821-8.272-1.64-12.377-2.589
	c-5.887-1.363-11.745-2.85-17.619-4.272c-0.846-0.205-1.709-0.337-2.56-0.522c-2.954-0.646-5.829-1.566-8.717-2.455
	c-3.647-1.122-7.341-2.094-10.992-3.204c-1.975-0.602-3.9-1.369-5.853-2.045c-2.402-0.832-4.803-1.674-7.219-2.467
	c-4.386-1.438-8.643-3.218-12.973-4.802c-5.387-1.971-10.607-4.333-15.867-6.591c-5.118-2.197-10.09-4.74-15.106-7.171
	c-5.883-2.852-11.629-5.971-17.27-9.266c-5.779-3.378-11.471-6.904-17.017-10.662c-6.678-4.523-13.16-9.305-19.389-14.431
	c-4.69-3.859-9.322-7.779-13.605-12.097c-1.517-1.53-3.197-2.901-4.697-4.448c-2.613-2.698-5.181-5.44-7.694-8.23
	c-1.278-1.418-2.367-3.003-3.591-4.472c-4.199-5.028-8.171-10.228-11.881-15.631c-3.752-5.464-7.216-11.11-10.378-16.926
	c-2.776-5.106-5.239-10.373-7.554-15.716c-2.791-6.442-5.031-13.066-7.143-19.746c-1.512-4.781-2.728-9.638-3.754-14.546
	c-0.423-2.02-0.947-4.023-1.504-6.011c-0.131-0.464-0.169-1.14-0.883-1.258V388.518z"/>
<path fill="#101010" d="M1081.855,593.477c-0.078,0.012-0.22,0.004-0.229,0.036c-0.458,1.558-1.518,1.828-3.051,1.814
	c-9.195-0.079-18.392-0.039-27.586-0.039c-0.401,0-0.803-0.023-1.2,0.005c-0.531,0.038-0.893-0.137-1.168-0.623
	c-0.902-1.593-1.848-3.16-2.767-4.744c-1.917-3.304-3.823-6.614-5.742-9.917c-0.28-0.482-0.635-0.925-0.883-1.423
	c-0.208-0.418-0.508-0.575-0.938-0.575c-0.48,0-0.96-0.003-1.439-0.003h-61.89c-0.4,0-0.803,0.032-1.199-0.005
	c-0.661-0.063-1.037,0.284-1.333,0.809c-1.015,1.805-2.041,3.602-3.058,5.403c-1.721,3.049-3.435,6.103-5.158,9.149
	c-0.273,0.485-0.598,0.942-0.874,1.426c-0.227,0.396-0.555,0.529-0.991,0.501c-0.317-0.021-0.64-0.003-0.96-0.003h-28.785
	c-0.4,0-0.801-0.013-1.198,0.001c-0.456,0.015-0.748-0.243-0.978-0.581c-0.178-0.263-0.288-0.57-0.467-0.831
	c-0.417-0.609-0.326-1.155,0.039-1.774c1.863-3.151,3.695-6.322,5.535-9.488c3.32-5.713,6.637-11.429,9.958-17.14
	c2.881-4.955,5.766-9.905,8.647-14.857c3.322-5.711,6.644-11.422,9.965-17.133c3.601-6.192,7.204-12.384,10.803-18.578
	c2.118-3.649,4.241-7.295,6.334-10.959c1.059-1.854,0.919-1.529,2.567-1.53c13.594-0.005,27.187-0.003,40.779-0.003
	c0.96,0,1.922,0.038,2.878-0.013c0.729-0.039,1.19,0.235,1.551,0.858c1.438,2.479,2.9,4.942,4.36,7.408
	c4.057,6.851,8.125,13.696,12.173,20.553c3.317,5.62,6.601,11.259,9.92,16.879c4.537,7.677,9.103,15.336,13.64,23.014
	c3.767,6.372,7.517,12.754,11.263,19.138c0.4,0.683,0.716,1.414,1.096,2.109c0.052,0.095,0.254,0.107,0.386,0.157V593.477z
	 M1005.93,562.414h11.038c4.08,0,8.159,0.003,12.238-0.005c0.722-0.002,0.866-0.227,0.53-0.819c-1.577-2.769-3.153-5.538-4.75-8.295
	c-5.111-8.823-10.23-17.643-15.35-26.461c-1.159-1.998-2.33-3.99-3.502-5.982c-0.202-0.343-0.503-0.357-0.705-0.056
	c-0.132,0.199-0.269,0.396-0.387,0.604c-1.815,3.182-3.624,6.366-5.44,9.547c-5.65,9.892-11.304,19.78-16.955,29.673
	c-0.196,0.347-0.387,0.696-0.57,1.052c-0.15,0.29,0.043,0.713,0.336,0.722c0.56,0.019,1.121,0.021,1.68,0.021
	C991.372,562.415,998.65,562.414,1005.93,562.414"/>
<path fill="#EC2027" d="M381.542,763.96c0-3.44,0-6.88,0-10.319c0.001-0.641,0.01-1.281,0.013-1.92
	c0.009-1.646,0.821-2.709,2.376-3.181c0.909-0.275,1.841-0.475,2.766-0.696c6.79-1.639,13.392-3.87,19.922-6.324
	c7.444-2.797,14.625-6.159,21.601-9.984c4.958-2.72,9.786-5.639,14.475-8.79c4.963-3.337,9.748-6.924,14.36-10.727
	c6.732-5.552,13.004-11.605,18.935-17.997c3.418-3.682,6.634-7.552,9.77-11.485c3.482-4.365,6.81-8.84,9.975-13.436
	c4.654-6.756,8.892-13.769,12.86-20.951c2.886-5.225,5.551-10.563,8.102-15.951c2.648-5.594,5.068-11.298,7.345-17.059
	c3.295-8.337,6.207-16.809,8.845-25.372c2.193-7.119,4.239-14.287,5.956-21.535c1.37-5.781,2.691-11.582,3.862-17.406
	c0.593-2.95,1.279-5.892,1.632-8.898c0.276-2.356,0.922-4.669,1.247-7.022c0.185-1.338,0.341-2.679,0.574-4.011
	c0.682-3.909,0.982-7.877,1.842-11.759c0.085-0.385,0.051-0.797,0.069-1.197c0.099-2.147,0.436-4.265,0.857-6.372
	c0.047-0.232,0.06-0.473,0.082-0.711c0.191-2.141,0.37-4.283,0.574-6.423c0.12-1.266,0.277-2.526,0.419-3.789
	c0.132-1.185-0.072-2.404,0.397-3.554c0.058-0.14,0.026-0.317,0.036-0.476c0.19-3.104,0.345-6.209,0.578-9.309
	c0.251-3.33,0.375-6.67,0.811-9.989c0.176-1.34,0.101-2.715,0.125-4.075c0.03-1.761,0.078-3.52,0.052-5.279
	c-0.012-0.814,0.165-1.579,0.364-2.347c0.347-1.344,1.16-1.835,2.456-1.453c6.875,2.026,13.48,4.704,19.718,8.253
	c1.383,0.787,2.751,1.602,4.108,2.431c0.541,0.33,1.061,0.705,1.546,1.112c0.968,0.813,1.496,1.871,1.453,3.143
	c-0.083,2.465,0.251,4.953-0.347,7.396c-0.019,0.076-0.007,0.159-0.013,0.238c-0.206,2.782-0.306,5.576-0.644,8.341
	c-0.445,3.625-0.363,7.309-1.244,10.883c-0.094,0.383-0.072,0.794-0.091,1.192c-0.113,2.227-0.453,4.417-0.858,6.61
	c-0.317,1.716-0.401,3.474-0.602,5.212c-0.176,1.501-0.281,3.018-0.576,4.494c-0.375,1.872-0.622,3.758-0.907,5.64
	c-0.296,1.961-0.649,3.915-1.007,5.867c-0.456,2.495-1.003,4.973-1.469,7.466c-0.468,2.492-0.945,4.987-1.456,7.471
	c-0.818,3.957-1.726,7.898-2.723,11.813c-2.015,7.908-3.828,15.865-6.205,23.683c-2.582,8.494-5.207,16.974-8.209,25.331
	c-1.313,3.656-2.689,7.29-4.077,10.92c-2.24,5.857-4.7,11.627-7.266,17.347c-2.244,5.002-4.692,9.914-7.095,14.845
	c-3.033,6.225-6.38,12.285-9.911,18.235c-4.51,7.601-9.284,15.031-14.489,22.188c-3.285,4.518-6.712,8.917-10.211,13.262
	c-2.253,2.797-4.667,5.464-7.067,8.138c-2.028,2.259-4.127,4.453-6.217,6.655c-1.264,1.332-2.532,2.661-3.993,3.793
	c-0.628,0.486-1.169,1.09-1.734,1.654c-3.73,3.736-7.783,7.101-11.853,10.454c-5.729,4.722-11.752,9.03-17.989,13.039
	c-2.675,1.718-5.398,3.376-8.181,4.911c-3.897,2.15-7.804,4.302-11.827,6.197c-5.808,2.735-11.698,5.291-17.793,7.373
	c-3.974,1.357-7.922,2.789-11.968,3.912c-3.664,1.018-7.366,1.885-11.068,2.758c-2.455,0.579-5.003,0.923-7.297,2.088
	c-0.524,0.267-1.074,0.294-1.629,0.309c-0.998,0.028-1.882-0.676-2.016-1.658c-0.086-0.632-0.07-1.277-0.071-1.917
	C381.539,771.479,381.542,767.72,381.542,763.96"/>
<path fill="#EC2027" d="M453.583,83.204c0,3.52,0.001,7.04,0,10.56c0,0.479,0.007,0.96-0.014,1.439
	c-0.085,1.91-0.67,2.723-2.5,3.326c-0.902,0.298-1.841,0.484-2.764,0.717c-5.23,1.317-10.305,3.126-15.405,4.857
	c-3.46,1.175-6.79,2.663-10.151,4.08c-4.179,1.763-8.22,3.804-12.219,5.923c-6.123,3.244-11.996,6.909-17.682,10.871
	c-4.451,3.102-8.719,6.437-12.898,9.898c-6.974,5.775-13.37,12.151-19.506,18.784c-4.875,5.271-9.382,10.859-13.637,16.652
	c-2.783,3.79-5.535,7.597-8.087,11.547c-2.98,4.613-5.827,9.304-8.576,14.059c-3.267,5.652-6.24,11.458-9.051,17.34
	c-3.183,6.66-6.086,13.445-8.826,20.308c-3.002,7.52-5.621,15.166-8.139,22.849c-1.553,4.741-2.799,9.582-4.256,14.355
	c-1.368,4.477-2.467,9.021-3.497,13.579c-0.925,4.096-1.919,8.178-2.813,12.282c-0.777,3.564-1.375,7.16-2.153,10.723
	c-0.711,3.251-1.071,6.579-1.624,9.866c-0.381,2.267-0.852,4.519-1.234,6.785c-0.251,1.488-0.4,2.992-0.623,4.485
	c-0.433,2.91-0.741,5.833-1.068,8.757c-0.3,2.683-0.722,5.351-0.945,8.048c-0.254,3.089-0.659,6.167-1.002,9.248
	c-0.204,1.828-0.212,3.656-0.401,5.474c-0.229,2.209-0.363,4.429-0.722,6.629c-0.205,1.253-0.172,2.546-0.224,3.822
	c-0.125,3.107-0.523,6.198-0.498,9.314c0.003,0.386-0.14,0.775-0.223,1.161c-0.403,1.875-1.024,2.052-2.71,1.821
	c-0.927-0.127-1.835-0.476-2.723-0.801c-6.311-2.304-12.142-5.516-17.656-9.335c-0.923-0.64-1.813-1.299-2.611-2.088
	c-0.598-0.591-0.936-1.271-0.92-2.128c0.052-2.959-0.053-5.93,0.174-8.874c0.251-3.248,0.661-6.484,0.945-9.734
	c0.318-3.635,0.498-7.296,1.239-10.887c-0.081-2.007,0.449-3.954,0.588-5.941c0.089-1.265,0.281-2.528,0.496-3.78
	c0.605-3.517,1.155-7.047,1.676-10.574c0.489-3.302,1.219-6.554,1.724-9.851c0.421-2.739,0.966-5.467,1.481-8.194
	c0.646-3.425,1.473-6.816,2.255-10.214c0.621-2.702,1.278-5.396,1.944-8.088c0.931-3.769,1.858-7.54,2.838-11.296
	c0.78-2.99,1.599-5.971,2.466-8.936c1.425-4.867,2.882-9.725,4.37-14.573c0.558-1.818,1.27-3.588,1.863-5.395
	c2.473-7.538,5.295-14.949,8.262-22.302c2.912-7.217,6.065-14.329,9.401-21.366c2.864-6.04,5.992-11.933,9.193-17.793
	c4.964-9.09,10.45-17.859,16.38-26.347c3.149-4.508,6.488-8.877,9.924-13.177c2.791-3.493,5.776-6.817,8.609-10.272
	c0.607-0.74,1.302-1.41,1.978-2.092c3.773-3.806,7.501-7.658,11.344-11.393c4.009-3.896,8.329-7.442,12.704-10.925
	c4.617-3.675,9.365-7.16,14.316-10.373c4.941-3.206,10-6.209,15.231-8.919c1.199-0.621,2.381-1.276,3.587-1.884
	c2.836-1.43,5.744-2.7,8.649-3.982c3.415-1.504,6.845-2.977,10.377-4.157c5.181-1.731,10.32-3.615,15.641-4.905
	c3.08-0.747,6.15-1.54,9.246-2.215c1.395-0.305,2.784-0.583,4.15-1.026c0.736-0.239,1.583-0.181,2.38-0.176
	c1.167,0.008,1.734,0.533,1.872,1.718c0.074,0.632,0.053,1.278,0.053,1.917C453.585,76.004,453.583,79.604,453.583,83.204"/>
<path fill="#101010" d="M757.629,460.893c-2.959,0-5.919,0.002-8.879-0.001c-0.559-0.001-1.125,0.026-1.678-0.04
	c-1.537-0.188-2.725-0.849-3.149-2.478c-0.439-1.691-0.932-3.373-1.337-5.073c-1.221-5.117-3.008-10.054-4.741-15.009
	c-2.926-8.365-6.706-16.35-10.896-24.142c-3.213-5.976-6.848-11.696-10.75-17.254c-4.32-6.154-9.038-11.988-14.037-17.592
	c-2.34-2.623-4.883-5.067-7.343-7.583c-8.236-8.425-17.3-15.865-26.871-22.717c-8.96-6.415-18.311-12.187-28.023-17.385
	c-10.815-5.789-21.975-10.815-33.405-15.268c-7.708-3.001-15.496-5.766-23.398-8.191c-8.81-2.706-17.667-5.271-26.659-7.325
	c-5.116-1.169-10.233-2.338-15.373-3.398c-3.737-0.772-7.511-1.368-11.27-2.037c-3.445-0.614-6.888-1.243-10.338-1.823
	c-1.493-0.251-3.005-0.386-4.506-0.593c-1.102-0.152-2.198-0.359-3.302-0.499c-4.028-0.511-8.057-1.026-12.091-1.497
	c-2.928-0.342-5.885-0.487-8.788-0.966c-2.132-0.352-4.299-0.266-6.411-0.728c-0.541-0.118-1.114-0.11-1.673-0.114
	c-3.199-0.021-6.352-0.51-9.522-0.849c-2.063-0.221-4.153-0.178-6.23-0.276c-2.31-0.11-4.618-0.26-6.928-0.36
	c-0.74-0.032-1.414-0.239-2.056-0.567c-0.463-0.236-0.677-0.661-0.702-1.173c-0.037-0.748,0.239-1.404,0.593-2.042
	c1.006-1.811,1.967-3.648,3.013-5.436c2.698-4.612,5.527-9.146,8.474-13.604c0.528-0.798,1.064-1.593,1.642-2.354
	c0.819-1.075,1.907-1.675,3.285-1.673c2.953,0.004,5.909-0.065,8.847,0.341c0.237,0.033,0.478,0.038,0.716,0.057
	c4.45,0.367,8.9,0.724,13.349,1.108c0.869,0.075,1.729,0.264,2.595,0.383c4.812,0.66,9.673,0.936,14.455,1.848
	c1.247,0.238,2.528,0.267,3.791,0.484c3.608,0.617,7.22,1.186,10.817,1.879c2.808,0.541,5.64,0.973,8.446,1.548
	c4.286,0.877,8.608,1.586,12.867,2.573c7.047,1.634,14.068,3.382,21.073,5.182c3.924,1.009,7.792,2.233,11.692,3.336
	c7.65,2.164,15.161,4.764,22.649,7.415c7.716,2.734,15.346,5.71,22.855,8.983c7.513,3.277,14.97,6.671,22.24,10.468
	c11.599,6.056,22.878,12.64,33.605,20.144c6.218,4.35,12.27,8.917,18.071,13.815c3.299,2.785,6.544,5.626,9.654,8.62
	c1.44,1.385,2.947,2.702,4.359,4.114c10.541,10.545,19.962,21.996,27.967,34.595c5.226,8.222,9.829,16.774,13.652,25.734
	c2.559,6,4.891,12.092,6.776,18.344c1.446,4.796,2.811,9.616,3.931,14.498c0.763,3.332,1.406,6.692,2.044,10.052
	c0.162,0.853,0.129,1.751,0.116,2.627c-0.014,0.815-0.516,1.294-1.268,1.552c-0.844,0.289-1.71,0.354-2.594,0.351
	C763.868,460.886,760.749,460.892,757.629,460.893"/>
<path fill="#101010" d="M125.747,386.136c2.879,0,5.758-0.001,8.637,0.001c0.64,0.001,1.28,0.004,1.919,0.028
	c1.463,0.054,2.608,0.661,3.322,1.974c0.838,1.54,1.68,3.079,2.497,4.629c4.026,7.633,8.592,14.93,13.669,21.904
	c2.915,4.003,5.958,7.905,9.201,11.656c3.4,3.934,6.844,7.819,10.545,11.471c5.352,5.278,10.953,10.275,16.839,14.957
	c6.065,4.822,12.364,9.313,18.901,13.467c7.134,4.533,14.501,8.648,22.071,12.419c7.057,3.514,14.251,6.716,21.58,9.599
	c9.027,3.553,18.226,6.605,27.536,9.347c7.552,2.223,15.202,4.038,22.84,5.907c3.473,0.853,7.005,1.461,10.516,2.153
	c3.121,0.616,6.231,1.343,9.381,1.75c3.635,0.469,7.19,1.423,10.857,1.679c1.026,0.072,2.038,0.337,3.062,0.465
	c4.029,0.502,8.058,1.014,12.093,1.464c3.167,0.354,6.346,0.607,9.515,0.934c2.217,0.228,4.428,0.503,6.642,0.754
	c0.317,0.036,0.637,0.079,0.955,0.074c3.442-0.049,6.855,0.399,10.269,0.699c3.268,0.286,6.534,0.371,9.804,0.452
	c0.737,0.019,1.417,0.2,2.102,0.392c0.676,0.187,1.104,0.681,1.121,1.389c0.017,0.796,0.053,1.622-0.124,2.387
	c-0.867,3.729-1.269,7.531-1.862,11.306c-0.556,3.535-1.029,7.085-1.829,10.578c-0.142,0.617-0.287,1.247-0.536,1.826
	c-0.482,1.124-1.356,1.764-2.611,1.737c-1.597-0.032-3.193-0.094-4.787-0.179c-0.714-0.038-1.422-0.18-2.135-0.245
	c-3.253-0.299-6.502-0.676-9.762-0.85c-2.396-0.128-4.77-0.41-7.14-0.721c-3.393-0.443-6.824-0.545-10.192-1.242
	c-1.71-0.354-3.486-0.378-5.229-0.58c-1.343-0.155-2.684-0.343-4.022-0.537c-4.094-0.6-8.181-1.252-12.282-1.803
	c-5.839-0.783-11.619-1.907-17.399-3.012c-6.09-1.164-12.177-2.38-18.201-3.842c-8.726-2.117-17.451-4.246-26.024-6.965
	c-4.54-1.441-9.114-2.773-13.619-4.329c-6.386-2.206-12.733-4.515-18.982-7.087c-7.358-3.028-14.611-6.284-21.699-9.901
	c-10.307-5.26-20.297-11.05-29.775-17.705c-7.263-5.099-14.247-10.541-20.814-16.521c-4.024-3.665-7.885-7.494-11.605-11.453
	c-6.189-6.586-11.809-13.652-16.836-21.164c-4.57-6.829-8.701-13.927-12.186-21.376c-3.24-6.924-6.039-14.028-8.284-21.343
	c-0.396-1.292-0.835-2.573-1.187-3.877c-0.33-1.22,0.299-2.276,1.506-2.532c0.617-0.131,1.269-0.129,1.905-0.131
	c3.279-0.012,6.558-0.005,9.837-0.005V386.136z"/>
<path fill="#101010" d="M712.161,460.894c-2.8,0-5.6,0.001-8.398-0.001c-0.561,0-1.121-0.007-1.681-0.015
	c-2.007-0.025-3.437-0.857-4.392-2.714c-1.786-3.471-3.639-6.913-5.598-10.288c-2.807-4.832-5.83-9.525-9.137-14.039
	c-3.114-4.255-6.313-8.447-9.761-12.435c-3.974-4.597-8.09-9.069-12.489-13.271c-4.396-4.198-8.93-8.238-13.646-12.071
	c-3.594-2.921-7.314-5.679-11.088-8.364c-10.157-7.225-20.878-13.507-32.027-19.059c-5.983-2.98-12.085-5.706-18.273-8.245
	c-8.171-3.353-16.47-6.34-24.891-8.986c-5.533-1.74-11.073-3.46-16.716-4.826c-4.635-1.123-9.268-2.247-13.925-3.28
	c-3.261-0.723-6.523-1.437-9.8-2.071c-3.28-0.633-6.583-1.148-9.875-1.716c-3.372-0.582-6.74-1.186-10.116-1.738
	c-1.651-0.27-3.317-0.441-4.975-0.66c-1.185-0.156-2.368-0.326-3.554-0.475c-3.555-0.446-7.109-0.912-10.67-1.315
	c-2.217-0.251-4.445-0.419-6.67-0.597c-4.531-0.361-9.076-0.601-13.593-1.088c-3.507-0.379-7.02-0.288-10.525-0.492
	c-0.95-0.055-1.903-0.151-2.839-0.316c-0.965-0.17-1.551-0.822-1.682-1.783c-0.097-0.709-0.083-1.436-0.086-2.155
	c-0.018-3.448,0.512-6.84,1.251-10.187c0.84-3.802,1.843-7.567,2.8-11.343c0.174-0.691,0.434-1.365,0.7-2.027
	c0.461-1.145,1.281-1.799,2.567-1.775c2.153,0.04,4.304,0.002,6.452,0.308c2.13,0.302,4.281,0.461,6.425,0.646
	c4.207,0.36,8.431,0.547,12.594,1.328c0.624,0.117,1.275,0.107,1.914,0.122c2.317,0.055,4.594,0.431,6.875,0.799
	c1.494,0.24,2.999,0.438,4.506,0.558c3.419,0.273,6.78,0.973,10.176,1.355c3.649,0.409,7.229,1.181,10.864,1.657
	c2.837,0.372,5.644,0.986,8.459,1.516c2.187,0.412,4.362,0.893,6.551,1.29c6.185,1.12,12.302,2.549,18.421,3.969
	c5.42,1.257,10.796,2.68,16.141,4.223c3.816,1.102,7.63,2.219,11.427,3.385c11.789,3.618,23.317,7.946,34.604,12.91
	c4.514,1.985,8.994,4.044,13.409,6.254c8.271,4.141,16.285,8.73,24.069,13.721c8.279,5.308,16.169,11.151,23.675,17.5
	c6.602,5.586,12.736,11.676,18.528,18.091c5.786,6.408,11.055,13.24,15.797,20.461c5.041,7.674,9.461,15.684,13.289,24.041
	c2.725,5.946,4.966,12.065,7.209,18.191c0.353,0.961,0.745,1.935,0.762,2.993c0.011,0.825-0.356,1.398-1.109,1.647
	c-0.839,0.276-1.699,0.382-2.591,0.375C718.4,460.876,715.28,460.893,712.161,460.894"/>
<path fill="#EC2027" d="M453.579,129.978c0,3.439-0.055,6.88,0.021,10.318c0.046,2.093-0.873,3.444-2.656,4.415
	c-2.793,1.522-5.542,3.123-8.307,4.696c-4.501,2.56-8.834,5.387-13.036,8.406c-3.04,2.185-6.009,4.471-8.988,6.739
	c-1.079,0.821-2.118,1.698-3.138,2.593c-2.041,1.791-4.069,3.598-6.079,5.423c-1.714,1.557-3.418,3.127-5.09,4.729
	c-4.334,4.15-8.288,8.659-12.185,13.209c-4.305,5.027-8.257,10.334-12.076,15.744c-4.366,6.186-8.32,12.625-12.031,19.213
	c-3.24,5.749-6.184,11.653-9.001,17.624c-2.746,5.822-5.213,11.758-7.524,17.758c-2.279,5.918-4.433,11.889-6.317,17.945
	c-1.882,6.05-3.608,12.152-5.282,18.265c-0.857,3.131-1.448,6.335-2.166,9.505c-0.667,2.936-1.378,5.863-2.004,8.808
	c-0.494,2.326-1.073,4.632-1.38,7.002c-0.276,2.118-0.772,4.209-1.197,6.306c-0.268,1.324-0.293,2.673-0.578,4.008
	c-0.828,3.878-1.124,7.849-1.901,11.745c-0.292,1.469-0.258,3.003-0.53,4.498c-0.384,2.108-0.463,4.262-0.9,6.366
	c-0.032,0.155-0.027,0.318-0.031,0.477c-0.086,3.029-0.594,6.013-0.93,9.016c-0.283,2.531-0.442,5.08-0.556,7.626
	c-0.158,3.5-0.404,6.99-0.883,10.462c-0.043,0.315-0.02,0.639-0.035,0.958c-0.164,3.425-0.326,6.851-0.496,10.275
	c-0.08,1.609-0.728,2.405-2.287,2.506c-1.749,0.115-3.512,0.13-5.26-0.139c-2.352-0.364-4.702-0.732-7.033-1.224
	c-3.177-0.67-6.373-1.254-9.446-2.354c-1.115-0.398-2.277-0.666-3.404-1.033c-1.406-0.458-1.997-1.478-1.929-2.928
	c0.108-2.306,0.043-4.607,0.393-6.916c0.392-2.592,0.437-5.235,0.652-7.854c0.111-1.346,0.277-2.687,0.389-4.033
	c0.106-1.267,0.245-2.529,0.401-3.791c0.253-2.048,0.593-4.092,0.676-6.172c0.08-1.974,0.48-3.935,0.74-5.901
	c0.042-0.316,0.085-0.631,0.121-0.947c0.351-3.081,0.594-6.179,1.079-9.239c0.497-3.136,0.812-6.3,1.407-9.418
	c0.623-3.271,1.113-6.566,1.691-9.843c0.551-3.123,1.233-6.225,1.694-9.371c0.482-3.288,1.267-6.535,1.985-9.785
	c1.061-4.797,2.144-9.589,3.287-14.368c0.773-3.235,1.607-6.458,2.517-9.657c1.497-5.258,2.979-10.524,4.645-15.73
	c2.512-7.852,5.224-15.637,8.277-23.303c2.29-5.753,4.693-11.456,7.274-17.079c2.388-5.201,4.916-10.342,7.754-15.321
	c0.905-1.589,1.738-3.218,2.638-4.81c4.234-7.492,8.899-14.705,13.91-21.702c3.765-5.258,7.806-10.295,12.023-15.187
	c2.764-3.207,5.641-6.324,8.697-9.26c2.997-2.879,5.977-5.781,9.092-8.528c3.708-3.269,7.577-6.352,11.598-9.237
	c4.141-2.971,8.382-5.795,12.741-8.437c1.087-0.659,2.197-1.284,3.313-1.895c2.511-1.373,4.973-2.856,7.561-4.066
	c6.682-3.121,13.415-6.136,20.483-8.32c1.741-0.537,3.463-1.139,5.208-1.662c1.227-0.369,2.216,0.322,2.339,1.599
	c0.061,0.635,0.051,1.278,0.052,1.917c0.004,3.12,0.002,6.239,0.002,9.359H453.579z"/>
<path fill="#EC2027" d="M381.547,716.704c0-3.28-0.009-6.561,0.008-9.84c0.003-0.633,0.014-1.291,0.185-1.891
	c0.35-1.22,1.241-1.98,2.353-2.56c2.257-1.173,4.485-2.4,6.722-3.613c8.066-4.372,15.701-9.413,22.949-15.026
	c3.595-2.784,7.072-5.72,10.469-8.757c4.298-3.841,8.386-7.892,12.314-12.096c4.028-4.313,7.833-8.821,11.446-13.505
	c4.484-5.814,8.604-11.863,12.564-18.03c2.149-3.347,4.199-6.756,6.073-10.269c1.685-3.158,3.529-6.236,5.095-9.45
	c2.816-5.781,5.638-11.564,7.98-17.564c1.067-2.733,2.282-5.41,3.32-8.155c2.775-7.343,5.454-14.718,7.583-22.281
	c0.943-3.356,2.06-6.661,3.016-10.013c1.174-4.116,2.202-8.271,3.132-12.45c0.671-3.018,1.446-6.01,2.101-9.029
	c0.637-2.944,1.37-5.867,1.792-8.86c0.298-2.115,0.888-4.191,1.175-6.309c0.331-2.442,1.034-4.816,1.215-7.282
	c0.058-0.786,0.286-1.557,0.431-2.336c0.435-2.344,0.663-4.721,1.058-7.065c0.567-3.372,0.924-6.765,1.388-10.146
	c0.41-2.994,0.894-5.977,0.987-9.004c0.583-1.922,0.161-3.981,0.796-5.896c0.025-0.073,0.014-0.158,0.019-0.238
	c0.178-2.382,0.383-4.763,0.521-7.147c0.083-1.432,0.185-2.853,0.425-4.271c0.224-1.328,0.175-2.685,0.404-4.034
	c0.278-1.64,0.205-3.349,0.184-5.027c-0.011-0.901,0.187-1.741,0.44-2.575c0.281-0.928,0.952-1.502,1.924-1.519
	c1.517-0.028,3.058-0.107,4.55,0.109c2.507,0.363,5.02,0.722,7.496,1.305c3.395,0.799,6.763,1.677,10.064,2.81
	c0.461,0.158,0.895,0.311,1.279,0.609c0.732,0.569,1.194,1.26,1.15,2.24c-0.093,2.066,0.12,4.154-0.434,6.19
	c-0.041,0.152-0.037,0.317-0.048,0.477c-0.173,2.463-0.381,4.924-0.51,7.39c-0.141,2.703-0.425,5.387-0.9,8.052
	c-0.042,0.235-0.047,0.479-0.039,0.719c0.082,2.484-0.328,4.941-0.661,7.374c-0.269,1.963-0.245,3.958-0.719,5.91
	c-0.333,1.372-0.335,2.839-0.482,4.259c-0.237,2.297-0.622,4.563-0.969,6.84c-0.215,1.41-0.218,2.843-0.516,4.259
	c-0.769,3.647-1.032,7.381-1.848,11.03c-0.291,1.301-0.346,2.674-0.586,4.006c-0.691,3.825-1.323,7.662-2.055,11.479
	c-0.536,2.802-1.148,5.59-1.805,8.365c-1.242,5.243-2.291,10.528-3.64,15.751c-1.228,4.756-2.575,9.479-3.838,14.227
	c-2.122,7.975-4.869,15.751-7.541,23.547c-1.722,5.023-3.669,9.981-5.779,14.855c-1.765,4.079-3.401,8.224-5.463,12.174
	c-0.844,1.619-1.505,3.329-2.323,4.963c-3.779,7.543-7.855,14.918-12.315,22.085c-3.835,6.163-7.986,12.1-12.416,17.841
	c-2.682,3.476-5.541,6.807-8.395,10.144c-3.385,3.959-7.118,7.572-10.812,11.224c-3.296,3.257-6.855,6.222-10.45,9.146
	c-3.28,2.669-6.657,5.204-10.125,7.618c-5.099,3.549-10.416,6.746-15.897,9.667c-6.449,3.437-13.086,6.447-19.983,8.895
	c-3.361,1.193-6.718,2.39-10.118,3.469c-0.622,0.197-1.229,0.321-1.865,0.343c-1.174,0.039-1.939-0.647-2.045-1.85
	c-0.049-0.556-0.034-1.118-0.035-1.678c-0.003-3.201-0.001-6.4-0.001-9.6H381.547z"/>
<path fill="#101010" d="M853.029,595.822c-4.13,0-8.29,0.069-12.447-0.021c-4.147-0.088-8.296-0.271-12.437-0.533
	c-3.175-0.201-6.35-0.493-9.503-0.916c-4.638-0.622-9.27-1.339-13.737-2.814c-3.288-1.087-6.28-2.665-8.805-5.097
	c-2.721-2.62-4.466-5.813-5.469-9.39c-1.021-3.633-1.13-7.393-1.064-11.148c0.015-0.798,1.235-1.974,2.066-2.051
	c0.316-0.029,0.639,0.002,0.959,0.002h27.113c0.239,0,0.479-0.009,0.72,0c0.622,0.021,0.801,0.16,0.958,0.828
	c0.089,0.382,0.155,0.776,0.173,1.168c0.051,1.117,0.065,2.238,0.105,3.356c0.049,1.363,0.417,2.652,0.82,3.949
	c0.763,2.448,2.443,3.919,4.859,4.44c2.169,0.471,4.384,0.802,6.597,0.986c9.008,0.752,18.04,0.626,27.069,0.604
	c2.558-0.007,5.125,0.039,7.674-0.129c3.805-0.25,7.616-0.504,11.35-1.383c1.918-0.453,3.61-1.239,4.815-2.861
	c0.975-1.311,1.454-2.837,1.655-4.418c0.239-1.882,0.356-3.775,0.063-5.679c-0.413-2.669-1.677-4.585-4.383-5.392
	c-1.373-0.409-2.737-0.797-4.173-0.945c-2.29-0.237-4.572-0.554-6.859-0.823c-0.474-0.056-0.957-0.058-1.437-0.072
	c-6.705-0.207-13.417-0.299-20.115-0.663c-3.746-0.203-7.506-0.144-11.236-0.486c-2.386-0.22-4.773-0.243-7.157-0.42
	c-1.267-0.095-2.528-0.276-3.795-0.365c-1.192-0.084-2.374-0.199-3.562-0.373c-1.729-0.251-3.488-0.204-5.224-0.548
	c-1.633-0.324-3.327-0.329-4.964-0.641c-2.802-0.535-5.617-1.025-8.359-1.832c-2.915-0.856-5.704-1.948-8.068-3.959
	c-3.286-2.796-5.234-6.356-6.23-10.499c-0.849-3.517-1.14-7.091-0.859-10.682c0.229-2.932,0.712-5.839,1.85-8.593
	c1.868-4.524,4.969-7.931,9.267-10.252c2.603-1.408,5.395-2.321,8.265-2.962c2.863-0.641,5.74-1.206,8.667-1.563
	c3.003-0.367,6.011-0.639,9.016-0.957c2.948-0.313,5.905-0.226,8.842-0.5c4.943-0.463,9.895-0.316,14.843-0.369
	c3.439-0.037,6.879,0.049,10.317-0.005c5.438-0.084,10.848,0.504,16.278,0.576c2.414,0.603,4.912,0.335,7.363,0.72
	c1.794,0.282,3.641,0.407,5.445,0.687c4.782,0.74,9.541,1.64,13.944,3.791c4.312,2.106,7.588,5.249,9.442,9.734
	c0.884,2.141,1.5,4.372,1.581,6.699c0.08,2.316,0.049,4.637,0.06,6.956c0.002,0.393-0.25,0.554-0.607,0.567
	c-0.4,0.015-0.8,0.016-1.2,0.016c-9.357,0.001-18.714,0.001-28.073,0.001c-0.398,0-0.8,0-1.199-0.01
	c-0.343-0.007-0.56-0.143-0.693-0.503c-0.258-0.684-0.374-1.382-0.398-2.105c-0.049-1.45-0.469-2.816-0.943-4.174
	c-1.048-2.997-3.183-4.708-6.273-5.18c-1.648-0.252-3.3-0.486-4.973-0.631c-9.42-0.816-18.848-0.367-28.273-0.335
	c-2.579,0.561-5.233,0.298-7.836,0.758c-1.873,0.33-3.766,0.525-5.605,1.059c-0.774,0.225-1.489,0.54-2.18,0.938
	c-1.98,1.144-3.135,2.806-3.557,5.099c-0.46,2.508-0.139,4.913,0.595,7.278c0.606,1.956,1.942,3.146,4.007,3.7
	c1.397,0.376,2.82,0.461,4.219,0.718c2.184,0.403,4.437,0.433,6.661,0.607c4.139,0.326,8.291,0.401,12.431,0.661
	c2.95,0.186,5.897,0.219,8.846,0.329c4.627,0.174,9.262,0.26,13.877,0.6c2.466,0.182,4.937,0.247,7.398,0.458
	c2.772,0.237,5.547,0.5,8.304,0.871c5.035,0.68,10.071,1.368,14.962,2.83c1.758,0.525,3.448,1.205,5.031,2.12
	c3.743,2.164,6.29,5.361,7.762,9.389c0.905,2.471,1.465,5.045,1.496,7.696c0.024,2.079,0.111,4.168-0.052,6.234
	c-0.297,3.74-1.066,7.374-2.694,10.811c-2.382,5.024-6.205,8.403-11.394,10.283c-3.215,1.165-6.534,1.879-9.907,2.447
	c-3.058,0.518-6.156,0.683-9.2,1.257c-0.078,0.015-0.16,0.004-0.24,0.01c-2.385,0.179-4.774,0.351-7.158,0.48
	C869.997,595.722,861.532,596.076,853.029,595.822"/>
<path fill="#101010" d="M661.129,460.937c-3.84,0-7.679,0.003-11.519-0.002c-0.64-0.001-1.291,0.04-1.916-0.065
	c-1.29-0.217-2.407-0.737-3.178-1.899c-1.28-1.93-2.583-3.846-3.951-5.713c-4.361-5.949-9.337-11.331-14.787-16.312
	c-7.757-7.09-16.267-13.143-25.229-18.569c-6.881-4.167-14.045-7.824-21.353-11.187c-10.198-4.692-20.655-8.719-31.365-12.097
	c-7.885-2.486-15.813-4.798-23.881-6.619c-4.651-1.05-9.28-2.198-13.947-3.168c-3.271-0.681-6.589-1.141-9.888-1.688
	c-2.118-0.351-4.24-0.68-6.361-1.017c-1.649-0.263-3.294-0.553-4.948-0.779c-4.574-0.628-9.152-1.228-13.728-1.838
	c-0.158-0.021-0.319-0.022-0.479-0.033c-2.866-0.197-5.733-0.384-8.598-0.593c-3.577-0.262-7.152-0.547-10.728-0.811
	c-0.717-0.053-1.438-0.07-2.158-0.083c-3.678-0.064-7.357-0.146-11.036-0.161c-0.894-0.004-1.742-0.189-2.597-0.355
	c-0.822-0.159-1.261-0.686-1.284-1.498c-0.021-0.717-0.014-1.447,0.103-2.151c0.325-1.96,0.714-3.909,1.077-5.863
	c0.058-0.312,0.148-0.625,0.158-0.94c0.119-3.75,0.71-7.475,0.568-11.241c-0.06-1.596-0.031-3.2,0.041-4.797
	c0.071-1.603,0.945-2.491,2.527-2.632c0.714-0.063,1.443-0.05,2.159,0.011c3.414,0.291,6.834,0.54,10.235,0.945
	c1.988,0.237,3.98,0.257,5.966,0.422c0.95,0.079,1.888,0.278,2.835,0.377c3.489,0.361,6.983,0.678,10.469,1.065
	c1.659,0.185,3.302,0.511,4.958,0.733c1.657,0.222,3.33,0.342,4.982,0.596c3.772,0.578,7.562,1.025,11.307,1.804
	c3.115,0.648,6.276,1.072,9.412,1.622c1.957,0.344,3.905,0.738,5.858,1.109c8.752,1.664,17.336,4.043,25.986,6.14
	c2.315,0.561,4.604,1.243,6.882,1.943c5.237,1.608,10.517,3.077,15.685,4.905c6.444,2.279,12.874,4.596,19.197,7.203
	c7.652,3.155,15.196,6.542,22.566,10.319c10.088,5.169,19.847,10.891,29.113,17.42c6.664,4.695,13.105,9.687,19.023,15.315
	c2.489,2.369,5.013,4.713,7.375,7.205c3.901,4.122,7.494,8.51,10.81,13.122c3.176,4.419,5.826,9.14,8.169,14.037
	c0.48,1.003,0.872,2.051,1.254,3.099c0.426,1.166-0.044,2.002-1.185,2.394c-0.701,0.239-1.403,0.283-2.122,0.283h-12.479V460.937z"
	/>
<path fill="#101010" d="M176.313,386.136c3.919,0,7.837-0.001,11.756,0.002c0.64,0,1.284-0.022,1.918,0.044
	c1.323,0.137,2.44,0.654,3.213,1.812c0.974,1.461,1.985,2.897,2.986,4.339c5.175,7.461,11.324,14.026,18.145,20.009
	c6.56,5.754,13.586,10.857,20.969,15.48c4.323,2.706,8.791,5.16,13.286,7.573c5.476,2.94,11.139,5.47,16.836,7.929
	c8.909,3.846,18.033,7.105,27.294,10.005c7.439,2.328,14.992,4.232,22.546,6.117c4.624,1.152,9.325,2.009,14.009,2.908
	c4.452,0.855,8.924,1.607,13.392,2.377c1.254,0.217,2.53,0.264,3.795,0.459c3.146,0.484,6.322,0.77,9.484,1.144
	c2.056,0.242,4.11,0.501,6.164,0.751c0.238,0.029,0.476,0.062,0.714,0.076c3.185,0.204,6.37,0.39,9.554,0.61
	c3.499,0.242,6.992,0.583,10.493,0.758c3.113,0.153,6.235,0.143,9.353,0.2c0.8,0.015,1.601-0.014,2.399,0.031
	c1.987,0.112,2.781,0.835,2.837,2.782c0.065,2.316,0.023,4.637-0.009,6.956c-0.022,1.679-0.05,3.36-0.168,5.034
	c-0.214,3.02-0.521,6.031-1.078,9.01c-0.22,1.173-0.483,2.338-0.748,3.501c-0.253,1.111-0.927,1.749-2.062,2.058
	c-0.96,0.262-1.903,0.238-2.847,0.159c-2.936-0.243-5.865-0.57-8.801-0.816c-4.205-0.352-8.42-0.592-12.589-1.297
	c-0.627-0.106-1.279-0.054-1.913-0.129c-1.976-0.231-3.95-0.485-5.924-0.74c-1.5-0.193-2.999-0.405-4.499-0.603
	c-4.106-0.54-8.223-1.006-12.316-1.634c-3.536-0.542-7.049-1.245-10.565-1.915c-2.968-0.564-5.917-1.226-8.889-1.77
	c-4.618-0.846-9.183-1.925-13.735-3.052c-4.705-1.166-9.388-2.424-14.065-3.701c-2.682-0.732-5.337-1.563-7.994-2.384
	c-4.936-1.522-9.867-3.06-14.733-4.803c-8.759-3.14-17.407-6.557-25.866-10.432c-10.948-5.017-21.607-10.588-31.774-17.05
	c-6.802-4.323-13.394-8.955-19.651-14.055c-5.273-4.297-10.34-8.812-15.047-13.722c-6.822-7.116-12.893-14.797-17.651-23.474
	c-1.19-2.17-2.262-4.386-3.252-6.647c-0.221-0.505-0.4-1.044-0.493-1.586c-0.202-1.16,0.328-1.962,1.618-2.225
	c0.695-0.142,1.433-0.089,2.152-0.09C168.476,386.132,172.395,386.135,176.313,386.136"/>
<path fill="#101010" d="M708.18,595.79c-4.64,0-9.28,0.065-13.918-0.021c-3.589-0.066-7.178-0.267-10.759-0.515
	c-3.175-0.219-6.354-0.485-9.506-0.909c-4.957-0.667-9.916-1.37-14.729-2.809c-2.821-0.844-5.583-1.834-8.113-3.38
	c-1.869-1.142-3.383-2.642-4.69-4.389c-1.642-2.192-2.822-4.625-3.719-7.183c-1.448-4.135-2.439-8.385-3.02-12.737
	c-0.432-3.242-0.754-6.485-1.027-9.745c-0.559-6.626-0.588-13.258-0.28-19.882c0.233-5.042,1.468-9.909,3.843-14.417
	c2.947-5.598,7.415-9.503,13.314-11.767c3.414-1.311,6.927-2.249,10.527-2.922c3.129-0.584,6.258-1.11,9.427-1.429
	c2.055-0.205,4.1-0.518,6.149-0.781c0.079-0.011,0.16-0.004,0.24-0.009c2.547-0.17,5.097-0.305,7.644-0.484
	c4.697-0.333,9.412-0.451,14.122-0.543c4.72-0.093,9.439-0.055,14.16-0.052c2.641,0.002,5.281-0.007,7.918,0.088
	c3.352,0.118,6.711,0.199,10.04,0.553c3.315,0.351,6.64,0.645,9.943,1.175c3.221,0.516,6.403,1.144,9.518,2.076
	c2.126,0.636,4.193,1.446,6.125,2.596c4.76,2.83,7.763,6.98,9.408,12.2c1.289,4.084,1.55,8.29,1.526,12.531
	c-0.006,1.093-0.998,2.143-2.09,2.247c-0.396,0.036-0.799,0.005-1.199,0.005h-26.159c-0.32,0-0.64,0.013-0.96-0.004
	c-1.17-0.059-2.273-1.142-2.313-2.287c-0.024-0.721-0.035-1.441-0.001-2.16c0.063-1.378-0.263-2.705-0.609-4.006
	c-0.866-3.249-3.094-5.147-6.324-5.797c-2.569-0.517-5.162-0.881-7.788-1.099c-9.663-0.797-19.333-0.413-29.001-0.351
	c-1.508,0.01-3.013,0.252-4.521,0.373c-1.427,0.115-2.85,0.191-4.277,0.369c-2.213,0.272-4.41,0.562-6.573,1.1
	c-0.768,0.19-1.537,0.392-2.291,0.634c-1.936,0.622-3.266,1.929-4.112,3.75c-0.739,1.591-1.306,3.266-1.608,4.977
	c-0.582,3.294-1.058,6.613-1.048,9.975c0.009,4.32-0.12,8.648,0.122,12.956c0.154,2.771,0.269,5.558,0.673,8.329
	c0.322,2.208,0.639,4.41,1.146,6.581c0.181,0.771,0.48,1.514,0.714,2.272c0.766,2.491,2.474,4.034,4.912,4.784
	c2.277,0.7,4.596,1.242,6.969,1.507c2.53,0.283,5.061,0.568,7.592,0.829c0.715,0.075,1.438,0.083,2.157,0.1
	c7.999,0.175,16.003,0.256,23.996-0.045c3.012-0.113,6.038-0.307,9.039-0.78c1.886-0.297,3.765-0.578,5.605-1.071
	c3.799-1.017,6.208-3.746,6.656-8.1c0.178-1.74,0.06-3.518-0.009-5.273c-0.029-0.795,0.201-1.378,0.769-1.909
	c0.369-0.344,0.726-0.6,1.252-0.576c0.479,0.021,0.96,0.004,1.44,0.004h25.92c0.399,0,0.8-0.013,1.199,0.002
	c1.19,0.042,2.141,0.921,2.146,2.09c0.021,4.308,0.089,8.622-1.046,12.841c-1.049,3.896-2.629,7.499-5.417,10.509
	c-2.564,2.768-5.708,4.576-9.263,5.673c-2.953,0.912-5.963,1.607-9.04,2.042c-2.519,0.358-5.031,0.71-7.563,0.996
	c-1.746,0.198-3.505,0.209-5.233,0.45c-2.94,0.408-5.902,0.238-8.838,0.504C720.963,596.054,714.568,595.729,708.18,595.79"/>
<path fill="#EC2027" d="M381.522,665.938c0-3.92-0.001-7.84,0-11.76c0.001-0.56,0.025-1.12,0.015-1.68
	c-0.022-1.295,0.529-2.315,1.51-3.11c0.493-0.399,1.025-0.755,1.561-1.097c6.916-4.395,13.016-9.758,18.626-15.7
	c4.389-4.648,8.391-9.605,12.071-14.838c3.209-4.563,6.165-9.276,8.989-14.085c3.105-5.288,5.857-10.756,8.5-16.279
	c1.437-3.005,2.623-6.13,3.991-9.17c2.867-6.376,5.066-13.008,7.454-19.563c1.355-3.718,2.358-7.564,3.533-11.349
	c1.741-5.602,3.261-11.267,4.636-16.965c1.097-4.547,2.054-9.125,3.063-13.691c0.788-3.565,1.424-7.157,2.002-10.762
	c0.352-2.188,0.877-4.35,1.265-6.534c0.237-1.329,0.345-2.68,0.54-4.018c0.218-1.491,0.471-2.979,0.706-4.468
	c0.086-0.548,0.216-1.095,0.242-1.646c0.092-1.992,0.452-3.943,0.833-5.894c0.046-0.233,0.084-0.47,0.105-0.707
	c0.198-2.221,0.277-4.46,0.62-6.658c0.319-2.042,0.204-4.133,0.759-6.141c0.042-0.151,0.046-0.314,0.058-0.473
	c0.175-2.543,0.361-5.086,0.522-7.63c0.205-3.263,0.269-6.538,0.626-9.782c0.228-2.069,0.27-4.133,0.368-6.201
	c0.015-0.32-0.007-0.647,0.059-0.957c0.293-1.37,1.241-2.216,2.793-1.913c1.634,0.319,3.272,0.643,4.892,1.006
	c1.715,0.387,3.462,0.438,5.176,0.796c3.029,0.635,6.143,0.777,9.167,1.462c0.847,0.191,1.676,0.471,2.499,0.752
	c1.457,0.499,2.15,1.597,2.212,3.081c0.043,1.036,0.13,2.113-0.084,3.11c-0.324,1.506-0.265,3.014-0.347,4.521
	c-0.191,3.504-0.263,7.019-0.579,10.511c-0.307,3.405-0.542,6.822-0.968,10.212c-0.22,1.746-0.294,3.487-0.429,5.231
	c-0.085,1.106-0.203,2.222-0.448,3.301c-0.423,1.867-0.419,3.783-0.766,5.663c-0.286,1.555-0.314,3.154-0.629,4.724
	c-0.565,2.798-0.77,5.653-1.364,8.455c-0.493,2.327-0.646,4.724-1.114,7.057c-0.593,2.954-1.094,5.925-1.686,8.877
	c-0.95,4.745-2.139,9.433-3.161,14.159c-0.854,3.944-2.019,7.821-3.072,11.722c-2.272,8.421-4.934,16.721-7.858,24.937
	c-1.756,4.934-3.704,9.791-5.681,14.64c-3.304,8.107-7.125,15.962-11.175,23.71c-2.616,5.007-5.465,9.883-8.477,14.668
	c-2.929,4.656-5.973,9.226-9.246,13.64c-2.898,3.91-5.962,7.686-9.158,11.363c-2.996,3.445-6.206,6.671-9.443,9.878
	c-4.945,4.899-10.319,9.287-16.095,13.165c-4.227,2.839-8.638,5.37-13.348,7.345c-0.658,0.274-1.325,0.538-2.004,0.751
	c-0.976,0.305-2.015-0.289-2.176-1.272c-0.102-0.627-0.081-1.276-0.082-1.916C381.52,674.257,381.522,670.098,381.522,665.938"/>
<path fill="#EC2027" d="M453.581,181.225c0,4.159,0.007,8.317-0.007,12.476c-0.002,0.79,0.054,1.585-0.283,2.355
	c-0.437,1.001-1.175,1.723-2.057,2.275c-3.525,2.21-6.702,4.858-9.858,7.552c-2.987,2.549-5.797,5.275-8.402,8.197
	c-2.654,2.976-5.233,6.027-7.695,9.162c-4.382,5.579-8.259,11.517-11.844,17.63c-2.493,4.249-4.859,8.574-7.055,12.993
	c-3.43,6.903-6.523,13.956-9.312,21.133c-2.927,7.534-5.536,15.186-7.874,22.931c-2.154,7.133-4.059,14.329-5.736,21.586
	c-1.125,4.863-2.209,9.736-3.224,14.622c-0.484,2.329-0.769,4.699-1.138,7.052c-0.345,2.196-0.593,4.412-1.063,6.58
	c-0.205,0.946-0.279,1.883-0.396,2.827c-0.108,0.865-0.273,1.722-0.41,2.583c-0.284,1.801-0.575,3.602-0.844,5.406
	c-0.07,0.472-0.078,0.954-0.096,1.432c-0.084,2.231-0.475,4.422-0.84,6.616c-0.039,0.235-0.095,0.473-0.091,0.708
	c0.048,2.718-0.415,5.401-0.56,8.106c-0.094,1.747-0.322,3.486-0.422,5.232c-0.096,1.675,0.072,3.384-0.192,5.028
	c-0.421,2.626-0.258,5.253-0.365,7.878c-0.113,2.786-0.241,5.571-0.384,8.356c-0.088,1.712-1.166,2.567-2.889,2.305
	c-0.862-0.131-1.732-0.252-2.574-0.472c-1.696-0.441-3.419-0.686-5.153-0.908c-1.334-0.172-2.658-0.45-3.972-0.742
	c-1.246-0.277-2.565-0.025-3.768-0.561c-2.311-0.115-4.554-0.673-6.822-1.065c-0.623-0.107-1.23-0.3-1.848-0.435
	c-1.48-0.322-2.107-1.394-2.222-2.749c-0.101-1.189-0.151-2.429,0.082-3.585c0.208-1.033,0.21-2.057,0.317-3.083
	c0.156-1.502,0.311-3.004,0.468-4.505c0.149-1.422-0.098-2.879,0.39-4.275c0.076-0.216,0.029-0.476,0.035-0.716
	c0.067-2.87,0.468-5.702,0.937-8.529c0.039-0.234,0.029-0.478,0.036-0.718c0.105-3.507,0.673-6.969,1.134-10.433
	c0.283-2.121,0.4-4.272,0.861-6.368c0.732-3.332,0.909-6.758,1.752-10.074c0.311-1.225,0.37-2.512,0.606-3.76
	c0.604-3.193,1.151-6.397,1.773-9.587c0.638-3.269,1.348-6.52,2.077-9.769c0.503-2.241,1.044-4.474,1.609-6.701
	c1.05-4.146,2.098-8.294,3.211-12.424c0.741-2.752,1.574-5.481,2.403-8.209c1.105-3.639,2.125-7.309,3.397-10.888
	c2.496-7.021,4.934-14.065,7.852-20.932c1.8-4.238,3.608-8.469,5.531-12.654c1.959-4.263,4.041-8.463,6.233-12.608
	c3.049-5.765,6.229-11.454,9.742-16.957c2.613-4.094,5.227-8.186,8.099-12.099c3.35-4.565,6.763-9.085,10.583-13.279
	c2.31-2.538,4.52-5.172,6.915-7.626c2.173-2.227,4.474-4.34,6.832-6.372c2.837-2.444,5.742-4.811,8.784-7.009
	c4.467-3.226,9.224-5.939,14.193-8.297c0.426-0.202,0.884-0.364,1.344-0.468c0.959-0.217,1.988,0.468,2.128,1.445
	c0.09,0.629,0.071,1.276,0.072,1.915c0.005,4.159,0.003,8.317,0.003,12.476H453.581z"/>
<path fill="#EC2027" d="M381.522,608.054c0-5.12-0.001-10.239,0-15.358c0-0.72,0.03-1.44,0.012-2.16
	c-0.03-1.162,0.37-2.15,0.986-3.13c3.341-5.322,6.523-10.736,9.255-16.403c2.242-4.649,4.231-9.406,6.114-14.214
	c1.649-4.21,3.197-8.452,4.518-12.777c1.759-5.759,3.522-11.52,4.877-17.39c0.927-4.015,1.76-8.053,2.635-12.081
	c0.353-1.627,0.734-3.247,1.05-4.881c0.466-2.413,0.847-4.842,1.334-7.251c0.519-2.567,0.69-5.187,1.276-7.749
	c0.281-1.225,0.358-2.517,0.493-3.776c0.23-2.139,0.553-4.252,0.974-6.355c0.062-0.311,0.045-0.638,0.06-0.957
	c0.104-2.229,0.415-4.429,0.891-6.607c0.033-0.154,0.035-0.316,0.048-0.476c0.179-2.143,0.328-4.288,0.545-6.426
	c0.232-2.291,0.529-4.576,0.798-6.864c0.028-0.236,0.067-0.473,0.081-0.71c0.201-3.422,0.313-6.853,0.622-10.266
	c0.275-3.022,0.404-6.044,0.504-9.072c0.021-0.624,0.206-1.257,0.405-1.855c0.307-0.926,1.294-1.494,2.287-1.321
	c2.187,0.38,4.36,0.848,6.553,1.185c1.807,0.279,3.629,0.498,5.453,0.604c2.234,0.131,4.478,0.097,6.716,0.172
	c1.989,0.065,3.977,0.169,5.963,0.286c1.335,0.078,2.048,0.739,2.19,2.063c0.067,0.631,0.136,1.331-0.063,1.906
	c-0.353,1.021-0.277,2.052-0.349,3.08c-0.183,2.623-0.559,5.231-0.534,7.868c-0.535,1.683-0.222,3.492-0.773,5.177
	c-0.096,0.294-0.049,0.635-0.075,0.953c-0.191,2.381-0.342,4.767-0.592,7.142c-0.167,1.576-0.479,3.136-0.722,4.703
	c-0.049,0.313-0.106,0.629-0.118,0.945c-0.113,2.87-0.772,5.669-1.142,8.505c-0.358,2.749-0.959,5.465-1.376,8.21
	c-0.262,1.723-0.62,3.433-0.953,5.146c-0.439,2.255-0.93,4.501-1.338,6.762c-0.774,4.292-1.757,8.535-2.751,12.781
	c-0.902,3.858-1.859,7.702-2.811,11.548c-1.046,4.23-2.326,8.398-3.618,12.563c-1.48,4.769-2.968,9.532-4.672,14.229
	c-2.3,6.341-4.681,12.646-7.423,18.813c-1.937,4.357-3.919,8.69-6.113,12.925c-3.774,7.287-7.945,14.341-12.68,21.039
	c-2.67,3.776-5.559,7.393-8.626,10.869c-2.013,2.282-4.19,4.394-6.297,6.578c-0.561,0.581-1.172,1.085-1.905,1.427
	c-0.587,0.275-1.413-0.069-1.539-0.705c-0.123-0.618-0.16-1.263-0.163-1.896c-0.014-3.84-0.007-7.68-0.007-11.519
	C381.522,611.573,381.522,609.813,381.522,608.054"/>
<path fill="#101010" d="M234.291,386.156c5.359,0,10.718,0.028,16.077-0.014c2.152-0.016,4.05,0.578,5.853,1.743
	c8.987,5.809,18.46,10.662,28.377,14.707c6.119,2.495,12.329,4.691,18.602,6.738c5.518,1.802,11.137,3.232,16.761,4.651
	c4.548,1.147,9.113,2.217,13.713,3.13c2.342,0.464,4.709,0.796,7.065,1.193c2.43,0.408,4.857,0.845,7.292,1.227
	c1.651,0.261,3.316,0.431,4.97,0.671c3.077,0.449,6.168,0.764,9.259,1.102c3.328,0.363,6.651,0.724,9.989,0.992
	c2.068,0.166,4.142,0.224,6.204,0.414c5.658,0.524,11.33,0.532,17.003,0.546c0.87,0.002,1.744,0.125,2.608,0.248
	c1.219,0.173,1.9,0.781,2.098,1.955c0.118,0.703,0.095,1.435,0.097,2.153c0.01,3.919,0.007,7.838,0.009,11.757
	c0.001,3.04,0.002,6.079,0.002,9.12c-0.001,0.56,0.012,1.121-0.025,1.679c-0.121,1.85-0.88,2.6-2.677,2.681
	c-0.159,0.008-0.32,0.007-0.48,0.001c-1.99-0.082-3.993,0.064-5.964-0.385c-0.46-0.105-0.956-0.054-1.435-0.079
	c-3.507-0.194-7.018-0.351-10.521-0.604c-1.983-0.142-3.955-0.447-5.933-0.676c-0.475-0.055-0.951-0.117-1.428-0.139
	c-2.712-0.119-5.392-0.505-8.074-0.901c-1.891-0.28-3.806-0.392-5.7-0.654c-2.366-0.326-4.722-0.717-7.079-1.104
	c-2.59-0.426-5.178-0.861-7.761-1.322c-1.564-0.279-3.118-0.613-4.675-0.929c-3.896-0.789-7.81-1.497-11.683-2.389
	c-8.444-1.943-16.841-4.082-25.104-6.701c-9.699-3.075-19.288-6.462-28.647-10.476c-9.522-4.084-18.787-8.669-27.666-14.024
	c-4.648-2.805-9.168-5.793-13.524-9.034c-5.659-4.21-10.91-8.873-15.785-13.963c-0.331-0.346-0.667-0.696-0.94-1.087
	c-0.645-0.926-0.201-2.031,0.89-2.169c0.71-0.09,1.436-0.076,2.155-0.076c5.359-0.005,10.718-0.003,16.077-0.003V386.156z"/>
<path fill="#101010" d="M602.382,460.88c-4.959,0-9.919-0.017-14.878,0.007c-2.22,0.011-4.204-0.582-6.075-1.813
	c-6.802-4.475-13.958-8.296-21.379-11.658c-7.761-3.519-15.701-6.527-23.803-9.155c-7.794-2.529-15.719-4.56-23.684-6.441
	c-4.564-1.077-9.177-1.956-13.781-2.85c-2.265-0.44-4.56-0.723-6.843-1.062c-3.228-0.48-6.455-0.965-9.687-1.413
	c-1.262-0.177-2.539-0.304-3.802-0.401c-4.134-0.322-8.215-1.121-12.379-1.218c-2.7-0.063-5.393-0.471-8.09-0.717
	c-0.398-0.036-0.798-0.053-1.197-0.064c-5.589-0.166-11.17-0.586-16.766-0.465c-0.879,0.019-1.762,0.015-2.638-0.048
	c-1.626-0.117-2.423-0.955-2.483-2.618c-0.031-0.877-0.025-1.765,0.065-2.637c0.271-2.613,0.571-5.224,0.901-7.83
	c0.199-1.575,0.499-3.138,0.712-4.712c0.352-2.607,0.752-5.214,0.717-7.855c-0.011-0.815,0.125-1.596,0.428-2.332
	c0.325-0.791,0.933-1.319,1.832-1.319c2.394-0.001,4.792-0.086,7.174,0.266c0.472,0.07,0.949,0.12,1.426,0.147
	c3.667,0.211,7.344,0.307,10.998,0.649c3.723,0.351,7.457,0.624,11.162,1.202c1.884,0.294,3.809,0.252,5.707,0.597
	c3.759,0.682,7.567,1.046,11.323,1.775c3.434,0.666,6.915,1.084,10.358,1.701c3.053,0.546,6.093,1.172,9.122,1.841
	c4.656,1.028,9.301,2.103,13.916,3.311c5.153,1.35,10.281,2.777,15.372,4.349c8.136,2.512,16.134,5.403,24.008,8.632
	c5.671,2.326,11.218,4.926,16.703,7.67c7.718,3.858,15.104,8.256,22.16,13.217c4.251,2.989,8.317,6.204,12.182,9.684
	c2.799,2.521,5.421,5.2,7.904,8.023c0.475,0.541,0.961,1.064,1.229,1.756c0.186,0.477,0.108,0.949-0.3,1.266
	c-0.379,0.297-0.777,0.539-1.297,0.528c-0.638-0.015-1.279,0.026-1.919,0.026c-4.799,0.003-9.6,0.002-14.399,0.002V460.88z"/>
<path fill="#EC2027" d="M453.566,239.052c0,5.279-0.048,10.559,0.024,15.836c0.029,2.067-0.411,3.913-1.529,5.651
	c-1.679,2.61-3.285,5.266-4.917,7.906c-0.292,0.472-0.586,0.946-0.84,1.44c-1.702,3.314-3.428,6.619-4.975,10.009
	c-1.019,2.235-1.994,4.492-2.887,6.78c-0.948,2.431-1.887,4.869-2.828,7.301c-1.032,2.664-1.789,5.406-2.688,8.104
	c-2.08,6.239-3.703,12.613-5.268,18.999c-0.773,3.154-1.53,6.313-2.225,9.485c-0.474,2.168-0.831,4.362-1.235,6.544
	c-0.332,1.794-0.522,3.627-1.023,5.371c-0.446,1.55-0.336,3.149-0.769,4.699c-0.467,1.67-0.717,3.418-0.889,5.149
	c-0.149,1.507-0.405,2.992-0.625,4.484c-0.406,2.751-0.744,5.51-1.076,8.27c-0.342,2.841-0.684,5.676-0.956,8.525
	c-0.326,3.404-0.654,6.808-0.993,10.21c-0.223,2.227-0.267,4.45-0.41,6.674c-0.087,1.347-0.257,2.688-0.391,4.032
	c-0.132,1.344-0.021,2.695-0.37,4.04c-0.235,0.906-0.124,1.909-0.114,2.868c0.015,1.362-0.194,2.693-0.459,4.019
	c-0.196,0.981-0.622,1.382-1.659,1.291c-1.582-0.139-3.173-0.302-4.725-0.626c-2.188-0.457-4.375-0.791-6.613-0.814
	c-1.671-0.018-3.331-0.106-5-0.337c-1.729-0.241-3.513-0.081-5.272-0.115c-0.631-0.011-1.253,0.016-1.871-0.281
	c-0.801-0.386-1.279-0.919-1.295-1.825c-0.005-0.319-0.04-0.639-0.03-0.958c0.076-2.548-0.124-5.112,0.434-7.633
	c0.051-0.231,0.024-0.478,0.037-0.718c0.199-3.583,0.381-7.167,0.607-10.748c0.069-1.107,0.268-2.206,0.385-3.31
	c0.117-1.105,0.217-2.211,0.362-3.313c0.228-1.729,0.425-3.476,0.54-5.218c0.146-2.23,0.493-4.416,0.896-6.606
	c0.287-1.56,0.219-3.165,0.579-4.731c0.354-1.543,0.566-3.119,0.819-4.684c0.242-1.488,0.427-2.986,0.689-4.471
	c0.802-4.528,1.577-9.062,2.464-13.573c0.565-2.874,1.285-5.719,1.98-8.566c1.05-4.31,2.113-8.617,3.22-12.912
	c0.593-2.3,1.268-4.58,1.947-6.856c1.449-4.858,2.843-9.736,4.573-14.504c2.11-5.814,4.255-11.613,6.641-17.325
	c2.942-7.042,6.139-13.959,9.738-20.688c2.251-4.209,4.642-8.338,7.166-12.391c2.572-4.128,5.362-8.101,8.332-11.948
	c2.931-3.795,6.019-7.457,9.498-10.771c0.403-0.384,0.833-0.748,1.29-1.067c0.522-0.365,1.419-0.028,1.546,0.609
	c0.123,0.619,0.159,1.263,0.161,1.896c0.012,4.4,0.005,8.798,0.005,13.198v3.599H453.566z"/>
<path fill="#FFFEFE" d="M1005.93,562.414c-7.279,0-14.558,0.001-21.837,0c-0.559-0.001-1.12-0.003-1.68-0.021
	c-0.293-0.009-0.486-0.432-0.336-0.722c0.184-0.355,0.374-0.705,0.57-1.052c5.651-9.893,11.305-19.781,16.955-29.673
	c1.816-3.181,3.625-6.365,5.44-9.547c0.118-0.207,0.255-0.404,0.387-0.604c0.202-0.302,0.503-0.287,0.705,0.056
	c1.172,1.992,2.343,3.984,3.502,5.982c5.119,8.818,10.238,17.638,15.35,26.461c1.597,2.757,3.173,5.526,4.75,8.295
	c0.336,0.593,0.191,0.817-0.53,0.819c-4.079,0.008-8.158,0.005-12.238,0.005H1005.93z"/>
</svg>
